<?xml version="1.0" standalone="no"?>
<!DOCTYPE svg PUBLIC "-//W3C//DTD SVG 1.1//EN" "http://www.w3.org/Graphics/SVG/1.1/DTD/svg11.dtd" >
<svg xmlns="http://www.w3.org/2000/svg">
<metadata>
Created by FontForge 20120731 at Mon Jan 25 14:59:14 2016
 By Ads
</metadata>
<defs>
<font id="iconfont" horiz-adv-x="1024" >
  <font-face 
    font-family="iconfont"
    font-weight="500"
    font-stretch="normal"
    units-per-em="1024"
    panose-1="2 0 6 3 0 0 0 0 0 0"
    ascent="896"
    descent="-128"
    x-height="792"
    bbox="-0.559055 -224 1193 896"
    underline-thickness="50"
    underline-position="-100"
    unicode-range="U+0078-E656"
  />
<missing-glyph horiz-adv-x="374" 
d="M34 0v682h272v-682h-272zM68 34h204v614h-204v-614z" />
    <glyph glyph-name=".notdef" horiz-adv-x="374" 
d="M34 0v682h272v-682h-272zM68 34h204v614h-204v-614z" />
    <glyph glyph-name=".null" horiz-adv-x="0" 
 />
    <glyph glyph-name="nonmarkingreturn" horiz-adv-x="341" 
 />
    <glyph glyph-name="x" unicode="x" horiz-adv-x="1001" 
d="M281 543q-27 -1 -53 -1h-83q-18 0 -36.5 -6t-32.5 -18.5t-23 -32t-9 -45.5v-76h912v41q0 16 -0.5 30t-0.5 18q0 13 -5 29t-17 29.5t-31.5 22.5t-49.5 9h-133v-97h-438v97zM955 310v-52q0 -23 0.5 -52t0.5 -58t-10.5 -47.5t-26 -30t-33 -16t-31.5 -4.5q-14 -1 -29.5 -0.5
t-29.5 0.5h-32l-45 128h-439l-44 -128h-29h-34q-20 0 -45 1q-25 0 -41 9.5t-25.5 23t-13.5 29.5t-4 30v167h911zM163 247q-12 0 -21 -8.5t-9 -21.5t9 -21.5t21 -8.5q13 0 22 8.5t9 21.5t-9 21.5t-22 8.5zM316 123q-8 -26 -14 -48q-5 -19 -10.5 -37t-7.5 -25t-3 -15t1 -14.5
t9.5 -10.5t21.5 -4h37h67h81h80h64h36q23 0 34 12t2 38q-5 13 -9.5 30.5t-9.5 34.5q-5 19 -11 39h-368zM336 498v228q0 11 2.5 23t10 21.5t20.5 15.5t34 6h188q31 0 51.5 -14.5t20.5 -52.5v-227h-327z" />
    <glyph glyph-name="uniE600" unicode="&#xe600;" 
d="M286 20q-6 0 -10 4.5t-4 10.5v51q0 37 11 72.5t33 66.5q10 14 22.5 27.5t26.5 24.5t30 20t32 16l19 7l-16 13q-55 43 -55 112q0 38 19.5 71t52.5 52t72 19q29 0 55.5 -11.5t45.5 -30.5t30.5 -45t11.5 -55q0 -33 -14.5 -62.5t-40.5 -49.5l-16 -13l19 -7q17 -7 32.5 -16
t29.5 -20t26.5 -24t23.5 -28q43 -63 43 -139v-51q0 -6 -4 -10.5t-10 -4.5h-465zM519 302q-90 0 -154 -63.5t-64 -152.5v-37h435v37q0 89 -63.5 152.5t-153.5 63.5zM519 559q-24 0 -45 -9t-36.5 -24.5t-24.5 -36.5t-9 -44q0 -47 33.5 -80.5t81 -33.5t81 33.5t33.5 80.5
q0 15 -4 30t-11.5 27.5t-18 23t-23 17.5t-27.5 11.5t-30 4.5zM183 97q-3 0 -5.5 1.5t-4.5 3t-3 4.5t-1 5v40q0 36 12.5 69t36.5 59.5t56 43.5l13 7l-10 11q-31 33 -31 78q0 44 29.5 77t72.5 39q-5 -8 -9.5 -16.5t-7.5 -17.5q-25 -10 -40.5 -32.5t-15.5 -49.5q0 -26 14 -48
t38 -32v-1h1q10 -3 10 -13q0 -4 -3 -7.5t-7 -5.5l-5 -1q-37 -9 -65.5 -32.5t-44 -56.5t-15.5 -71v-25h23q-1 -7 -1.5 -14.5t-1.5 -14.5h-35zM819 97q-1 14 -3 29h23v25q0 57 -35 101.5t-90 58.5l-5 1q-4 2 -7 5.5t-3 7.5q0 10 10 13l1 1q24 10 38 32t14 48q0 18 -7 34.5
t-19.5 28.5t-29.5 19q-7 18 -17 34q43 -6 72.5 -39t29.5 -77q0 -45 -31 -78l-10 -11l13 -7q49 -25 77 -71t28 -101v-40q0 -5 -4 -9.5t-10 -4.5h-35zM819 97zM522 786q-68 0 -132.5 -17.5t-119.5 -50t-101 -78.5t-78 -100.5t-50 -119.5t-18 -133q0 -101 39.5 -193.5
t106.5 -159.5t159 -106.5t194 -39.5t194 39.5t159 106.5t106.5 159.5t39.5 194t-39.5 194t-106.5 159t-159 106t-194 39.5zM522 -188q-97 0 -185 38t-151.5 101.5t-101 151.5t-37.5 184q0 78 24 150.5t68 130.5t102.5 102t131 68t149.5 24q97 0 184.5 -37.5t151.5 -101
t101.5 -151.5t37.5 -184.5t-37.5 -184.5t-101.5 -151.5t-151.5 -101.5t-184.5 -38z" />
    <glyph glyph-name="uniE601" unicode="&#xe601;" 
d="M509 799q-102 0 -195 -40t-160 -107t-107 -160t-40 -195t40 -195t107 -160t160 -106.5t195 -39.5t195 39.5t160 106.5t106.5 160t39.5 195q0 46 -8 90.5t-23 85t-37 78t-50 70t-60.5 60t-70 49.5t-78 37.5t-85 23.5t-89.5 8zM509 -180q-97 0 -185.5 38t-152.5 101.5
t-101.5 152t-37.5 185.5t37.5 185.5t101.5 152.5t152.5 101.5t185.5 37.5t185.5 -37.5t152 -101.5t101.5 -152.5t38 -185.5t-38 -185.5t-101.5 -152t-152 -101.5t-185.5 -38zM404 448q0 -3 -1.5 -5t-3.5 -3t-4 -1h-4q-8 0 -8 9v67q0 9 8 9h4q3 0 6 -3t3 -6v-67zM404 79
q0 -9 -9 -9h-4q-8 0 -8 9v68q0 8 8 8h4q9 0 9 -8v-68zM404 202q0 -9 -9 -9h-4q-8 0 -8 9v67q0 9 8 9h4q9 0 9 -9v-67zM404 325q0 -9 -9 -9h-4q-8 0 -8 9v67q0 9 8 9h4q9 0 9 -9v-67zM817 212v-102q0 -6 -5 -11t-11 -5h-584q-7 0 -12 5t-5 11v103q-8 -2 -16 -2h-6v-105
q0 -15 10.5 -25.5t25.5 -10.5h589q15 0 25.5 10.5t10.5 25.5v106q-3 0 -6 -0.5t-6 -0.5zM803 524h-589q-15 0 -25.5 -10.5t-10.5 -25.5v-91h2h4q8 0 16 -1v88q0 6 5 11t12 5h584q6 0 11 -5t5 -11v-87h10h6q3 0 6 -1v92q0 5 -1 9.5t-3.5 8.5t-6 7.5t-7.5 5.5t-8.5 3.5
t-9.5 1.5zM186 397h-8v-19h8q20 0 37 -10t27 -27t10 -37q0 -30 -21.5 -52t-52.5 -22q-4 0 -8 1v-20h8q25 0 46.5 12.5t34 34t12.5 46.5q0 39 -27 66t-66 27zM839 231q-3 0 -6 -0.5t-6 -0.5q-15 0 -29 6t-23.5 16t-15.5 23.5t-6 28.5q0 31 21.5 52.5t52.5 21.5q5 0 12 -1v19
l-12 1q-39 0 -66 -27t-27 -65.5t27 -66t66 -27.5l12 1v19z" />
    <glyph glyph-name="uniE602" unicode="&#xe602;" 
d="M515 803q-68 0 -133 -18t-120 -50.5t-101.5 -78.5t-78.5 -101t-50 -120t-18 -133q0 -82 25 -158.5t71.5 -138t108 -108t138.5 -72t158 -25.5q102 0 195 40t160 107t107 160t40 195q0 81 -25.5 157.5t-72 138.5t-108 108.5t-138 71.5t-158.5 25zM515 -175
q-97 0 -185.5 37.5t-152 101.5t-101.5 152.5t-38 185.5q0 77 24 150t68.5 131.5t103 103t131.5 68.5t150.5 24t150.5 -24t131.5 -68.5t102.5 -103t68 -131.5t24 -150q0 -130 -63.5 -240t-173.5 -173.5t-240 -63.5zM757 516q-32 2 -63 8t-60.5 17t-57.5 25.5t-54 33.5l-7 5
l-6 -5q-111 -78 -235 -84h-13v-202q0 -112 70.5 -200.5t180.5 -114.5h4h2q111 26 181.5 114.5t70.5 200.5v202h-13zM744 314q0 -104 -63 -185t-166 -105q-50 12 -93 39.5t-73 65.5t-46.5 86t-16.5 99v177q131 9 229 76q26 -18 53 -31.5t56 -22.5t58.5 -14.5t61.5 -7.5v-177z
M382 342q-8 8 -15.5 0t0.5 -16l112 -118q0 -2 1 -3t2.5 -1.5t2.5 -1.5q3 -1 6 0t6 3l2 4l165 173q3 3 3 8t-3 8q-8 8 -16 0l-160 -168z" />
    <glyph glyph-name="uniE603" unicode="&#xe603;" 
d="M509 802q-102 0 -195 -40t-160 -107t-107 -160t-40 -195t40 -195t107 -160t160 -107t195 -40t195 40t160 107t106.5 160t39.5 195q0 59 -13 115t-38 105.5t-59 93t-77.5 78t-93 59t-106 38t-114.5 13.5zM509 -177q-97 0 -185.5 37.5t-152.5 101.5t-101.5 152.5
t-37.5 185.5t37.5 185.5t101.5 152t152.5 101.5t185.5 38q43 0 85.5 -7.5t81 -22t74 -35.5t66.5 -47.5t57.5 -57.5t47 -66.5t35.5 -74t22.5 -81t7.5 -85.5q0 -97 -38 -185.5t-101.5 -152.5t-152 -101.5t-185.5 -37.5zM776 342v21h-146l111 263l-20 8l-114 -271h-88h-21h-84
l-114 271l-20 -8l111 -263h-149v-21h256v-135h-256v-21h256v-257h21v257h257v21h-257v135h257z" />
    <glyph glyph-name="uniE604" unicode="&#xe604;" 
d="M502 805q-102 0 -195 -40t-160.5 -107t-107 -160t-39.5 -195t39.5 -195t107 -160t160.5 -106.5t195 -39.5t194.5 39.5t160 106.5t107 160t39.5 195t-39.5 195t-107 160t-160 107t-194.5 40zM502 -174q-98 0 -186 38t-152 101.5t-102 152t-38 185.5q0 65 17.5 127t48 114
t74.5 96.5t96.5 75t114.5 47.5t127 17q77 0 150 -24t131.5 -68t102.5 -102.5t68.5 -131.5t24.5 -151q0 -178 -118 -313q-112 -130 -281 -157q-39 -7 -78 -7zM758 37q0 -1 -0.5 -1t0.5 -1v2q0 -6 -4.5 -10.5t-11 -4.5t-11 4.5t-4.5 10.5q-9 29 -24.5 54.5t-37 46t-47 35.5
t-55.5 23t-62 8q-52 0 -98.5 -22t-79.5 -61t-47 -87v3q0 -4 -3 -8t-6.5 -5.5t-6.5 -1.5q-6 0 -10.5 4.5t-4.5 10.5q0 1 0.5 2.5t0.5 2.5v1q19 64 65.5 111.5t109.5 67.5q-49 24 -79 70t-30 102q0 52 25 96t69 69t95 25q79 0 134.5 -55.5t55.5 -134.5q0 -37 -13.5 -71
t-38.5 -59.5t-57 -41.5q63 -19 109.5 -67t65.5 -111q0 -1 1 -4v-3zM661 394q0 67 -46.5 113.5t-113 46.5t-113 -46.5t-46.5 -113t46.5 -113t113 -46.5t113 46.5t46.5 112.5zM661 394z" />
    <glyph glyph-name="uniE605" unicode="&#xe605;" 
d="M515 802q-102 0 -195 -40t-160 -107t-106.5 -160t-39.5 -195t39.5 -194.5t106.5 -160t160 -107t195 -39.5q82 0 158.5 25t138 71.5t108 108.5t72 138.5t25.5 157.5q0 102 -40 195t-107 160t-160 107t-195 40zM515 -177q-97 0 -185.5 38t-152 102t-101.5 152t-38 185
t38 185.5t101.5 152.5t152 101.5t185.5 37.5q78 0 151 -24t131.5 -68t102.5 -102.5t68 -131.5t24 -151q0 -97 -37.5 -185t-101.5 -152t-152.5 -102t-185.5 -38zM515 423q-50 0 -86 -36t-36 -87q0 -24 9.5 -47t26 -39.5t39 -26t47.5 -9.5q51 0 87 36t36 86q0 34 -16.5 62
t-45 44.5t-61.5 16.5zM583 233q-14 -13 -31.5 -20.5t-36.5 -7.5q-39 0 -67 28t-28 67q0 13 3.5 25t9.5 23t15 20q13 13 30.5 20.5t36.5 7.5q40 0 67.5 -28t27.5 -68q0 -12 -3 -24t-9.5 -23t-14.5 -20zM816 223l1 1v1h1v1v1v1h1v0v1v0q8 35 8 71q0 19 -2 36.5t-6 35.5v1l-1 1
v1l-1 1q-3 5 -9 6h-1h-1v0h-1h-3q-34 0 -58 24t-24 58q0 24 13 44l1 1v1h1v1v0v1v0v1l1 1v1v1v1v1h-1v1v1v1q-1 0 -1 1v0v1h-1v1h-1v1h-1q-26 26 -58.5 45t-67.5 29v0h-1v1h-1h-1h-1v0h-1v0h-1h-1v-1h-1h-1v0l-1 -1v0v0h-1q0 -1 -1 -1v0l-1 -1v0h-1v-1l-1 -1v0q0 -1 -0.5 -1
t-0.5 -1q-5 -10 -12.5 -19t-17.5 -15q-20 -13 -44 -13q-8 0 -15.5 1.5t-14.5 4.5t-14 7q-10 6 -17.5 15t-12.5 19v0v1v1h-1v1q-1 0 -1 0.5t-1 0.5v1v0h-1v1h-1v0h-1v1h-1h-1v0h-1v1h-1h-1v0h-1h-1v0h-1v0l-1 -1h-1q-71 -21 -125 -73l-1 -1l-1 -1v0v-1h-1v-1v0l-1 -1v-1v0v-1
v-1v0v-1v0v-1v-1v-1v0v-2v0l1 -1v0v-1h1v-1q7 -10 10 -21.5t3 -23.5q0 -22 -10.5 -41t-29.5 -30t-41 -11h-5h-1h-1v0h-1h-1h-1v-1h-1h-1v-1h-1l-1 -1v0h-1v-1v0h-1v-1v0v0l-1 -1v-1h-1v-1v-1l-1 -1q-4 -18 -6 -35.5t-2 -36.5q0 -36 8 -71l1 -1v0v-1v-1h1v-1l1 -1v-1h1v-1
q1 0 1 -1h1l1 -1v0h1v0l1 -1v0h1h1v0h1v-1h1h1q2 1 3 1h2q34 0 57.5 -24t23.5 -58q0 -25 -13 -45l-1 -1v-1v-1h-1v-1v0v0v-1v-1v0v-1v-1v0v-1v-1v-1v0v-1l1 -1v0v-1l1 -1v0v-1h1v-1h1q54 -52 125 -73l1 -1h1h1h1h1h1h1h1q0 1 1 1v0h1l1 1q1 0 1 1v0h1l1 1v0v1h1v1q1 1 1 2
q10 21 30 34t44 13t44 -13q10 -7 17.5 -15.5t12.5 -18.5v-1h1v-1v-1h1v0v-1h1v-1h1q1 -1 2 -1v-1h1v0h1l1 -1h1v0h1h1v0h1h1l2 1q72 21 126 73v1h1v1h1v1h1v1v1h1v1v0v1v1l1 1v0v1v1v1h-1v1v0v1v1v0v1h-1v1l-1 1q-13 20 -13 44q0 22 11 41t30 30t41 11h3v-1h1l1 1h1h1v0h1h1
v1h1h1v1h1v1h1q0 1 1 1v0zM693 137q0 -26 12 -49q-43 -38 -97 -57q-7 10 -15.5 19t-18.5 15q-27 18 -59 18t-59 -18q-20 -13 -33 -34q-54 18 -96 56q12 24 12 50q0 14 -4 28t-10.5 25.5t-16 21.5t-20.5 17t-24.5 11.5t-27.5 5.5q-6 27 -6 54v14l2 14q0 7 1 13.5t3 13.5
q43 2 73 33.5t30 75.5q0 26 -12 50q42 37 96 56q4 -7 9 -13t11 -11.5t13 -10.5q27 -17 59 -17t59 17q21 14 34 35q27 -9 51.5 -23.5t45.5 -33.5q-6 -11 -9 -23.5t-3 -25.5q0 -43 29.5 -74.5t72.5 -34.5q5 -27 5 -55q0 -13 -1.5 -27t-3.5 -27q-43 -3 -72.5 -34.5t-29.5 -74.5
zM693 137z" />
    <glyph glyph-name="uniE606" unicode="&#xe606;" 
d="M504 806q-102 0 -195 -39.5t-160 -107t-107 -160t-40 -195.5q0 -81 25.5 -157.5t72 -138.5t108 -108t138 -71.5t158.5 -25.5q102 0 195 39.5t160 107t106.5 160t39.5 195t-39.5 195t-106.5 160t-160 107t-195 39.5zM504 -173q-97 0 -185.5 38t-152.5 102t-101.5 152
t-37.5 185.5t37.5 185.5t101.5 152t152.5 102t185.5 38t185.5 -38t152 -102t101.5 -152t38 -186q0 -77 -24 -150t-68.5 -131.5t-103 -102.5t-131.5 -68.5t-150 -24.5zM528 431q0 -18 8 -34.5t21 -28.5t30.5 -19t35.5 -7h108v25h-108q-27 0 -48.5 19t-21.5 45v114h-25v-114z
M664 64h-321q-17 0 -32.5 10t-24.5 27t-9 35v350q0 26 18.5 42.5t47.5 16.5h201l-9 3q21 -17 40 -33.5t38 -34.5q10 -10 22 -21q6 -6 27 -26.5t43 -42.5l30 -30l-4 9v-233q0 -28 -20 -50t-47 -22v0zM758 136v233v6l-4 4q-10 9 -51.5 49.5t-48.5 48.5q-12 11 -23 21
q-38 36 -78 69l-4 4h-5h-201q-26 0 -47 -11t-33.5 -30.5t-12.5 -43.5v-350q0 -25 12.5 -47.5t34.5 -36.5t46 -14h321q38 0 66 29.5t28 68.5zM758 136zM522 224q0 -4 -2 -7t-6 -5t-8 -2h-5q-7 0 -11.5 4t-4.5 10v223q0 6 4.5 10t11.5 4h5q7 0 11.5 -4t4.5 -10v-223zM504 167z
M485 167q0 5 2.5 9.5t7 7t9.5 2.5t9 -2.5t6.5 -7t2.5 -9.5q0 -8 -5 -13.5t-13 -5.5q-5 0 -9.5 2.5t-7 7t-2.5 9.5z" />
    <glyph glyph-name="uniE607" unicode="&#xe607;" 
d="M363 245q-18 -19 -33 -34q-4 -5 -7.5 -8.5t-7.5 -6.5l-1 -2q-8 -7 -11.5 -13t-7.5 -13v-2q-1 -1 -2.5 -5.5t-4.5 -11.5q-4 -14 -10 -31q-1 -6 -3 -11.5t-3.5 -11t-2.5 -10.5q-1 -4 -2 -7.5t-1 -5.5l-2 -6q0 -2 -1 -4q-1 -7 0 -11h3h6q3 1 8.5 2t13.5 3t16 4.5t17 5.5
q8 3 16.5 6t16.5 6q16 6 23 9l1 1q7 3 13 8q7 5 13 10l1 1l1 1l1 1q1 1 2.5 2t3.5 3.5t5 5.5l32 32q19 20 44 44l47 48l119 120l-91 93zM629 75h24v-25h-24v25zM741 438l3 2l2 4q2 1 4 2.5t3 3.5q3 2 5 5l2 5q2 6 2 11v4q0 2 -0.5 4t-0.5 4q-2 6 -3 10q-4 7 -9.5 15
t-11.5 15q-14 15 -24 21q-5 2 -12 4q-6 2 -13 2h-1h-4q-2 0 -4 -0.5t-4 -1.5q-7 -2 -13 -7q-6 -4 -15 -13l-2 -2l-3 -2q-1 -2 -2 -2l92 -93zM519 75h25v-25h-25v25zM513 802q-136 0 -252 -67t-183 -183t-67 -252q0 -102 40 -195t107 -160t160 -106.5t195 -39.5t195 39.5
t160 106.5t106.5 160t39.5 195q0 68 -18 133t-50 120t-78.5 101.5t-101.5 79t-120 50.5t-133 18zM610 533q7 6 17 16q5 5 9.5 8.5t7.5 6.5q6 4 11.5 7t10.5 5q11 3 21 3h2q5 0 10.5 -1t9.5 -2l6 -2q3 -1 5.5 -2t5.5 -3q15 -7 32 -26q8 -9 14.5 -18.5t11.5 -19.5q3 -7 5 -16
q1 -4 1.5 -8.5t0.5 -9.5q0 -11 -4 -21q-4 -11 -13 -20l-13 -13q-6 -5 -10 -9q-2 -3 -4.5 -5.5t-5.5 -4.5l-10 -9l-132 134zM573 21h-83v83h83v-83zM682 21h-82v83h82v-83zM568 224l-48 -49q-25 -24 -43 -43l-32 -32l-16 -16q-7 -6 -14 -11q-3 -3 -6.5 -5t-6.5 -3.5t-6 -3.5
q-9 -4 -26 -10q-16 -6 -34 -12t-35 -10.5t-25 -5.5q-5 -1 -9 -1q-9 0 -15.5 2.5t-10.5 8.5q-9 11 -6 33q1 9 6 26q4 15 10 34q5 18 10 32q1 4 2 7l2 6q1 3 2 5l2 4q4 9 9 17t15 17l1 2q9 9 16 15q4 5 9 10l11 11l13 13l232 233l132 -134zM792 21h-83v83h83v-83zM738 75h25
v-25h-25v25z" />
    <glyph glyph-name="uniE608" unicode="&#xe608;" 
d="M553 431q0 -26 21.5 -45t48.5 -19h105q-10 10 -31 30.5t-38.5 38t-23.5 23t-11 11.5l-11 10q-30 27 -60 53v-102zM623 342q-37 0 -66 26.5t-29 62.5v114h-185q-19 0 -34 -7.5t-23.5 -21t-8.5 -30.5v-350q0 -28 20 -50t46 -22h321q27 0 47 22t20 50v206h-108zM485 447
q0 6 4.5 10t11.5 4h5q7 0 11.5 -4t4.5 -10v-223q0 -4 -2 -7t-6 -5t-8 -2h-5q-7 0 -11.5 4t-4.5 10v223zM504 148q-5 0 -9.5 2.5t-7 7t-2.5 9.5q0 8 5.5 13.5t13.5 5.5q5 0 9 -2.5t6.5 -7t2.5 -9.5q0 -8 -5 -13.5t-13 -5.5zM504 806q-102 0 -195 -39.5t-160 -107t-107 -160
t-40 -195.5q0 -81 25.5 -157.5t72 -138.5t108 -108t138 -71.5t158.5 -25.5q102 0 195 39.5t160 107t106.5 160t39.5 195t-39.5 195t-106.5 160t-160 107t-195 39.5zM758 369v-233q0 -39 -28 -68.5t-66 -29.5h-321q-37 0 -65 29.5t-28 68.5v350q0 37 27 61t66 24h201h5l4 -4
q40 -33 78 -69q11 -10 23 -21q7 -7 48.5 -48t51.5 -50l4 -4v-6z" />
    <glyph glyph-name="uniE609" unicode="&#xe609;" 
d="M515 396q-9 0 -18.5 -2t-18 -5.5t-16 -9t-14.5 -11.5q-14 -14 -21 -31.5t-7 -36.5t7 -36t21 -31q28 -28 67 -28q19 0 36.5 7.5t31.5 20.5q27 28 27 67.5t-27.5 67.5t-67.5 28zM693 464q0 26 12 49q-43 38 -97 57q-7 -11 -15.5 -19.5t-18.5 -15.5q-27 -17 -59 -17t-59 17
q-10 7 -18.5 15.5t-14.5 19.5q-54 -19 -96 -56q12 -24 12 -50q0 -17 -5.5 -33.5t-15 -29.5t-22 -23t-28 -16t-32.5 -7q-3 -13 -4.5 -27t-1.5 -27.5t1.5 -27.5t4.5 -27q43 -3 73 -34t30 -75q0 -26 -12 -50q42 -38 96 -56q13 21 33 34q27 18 59 18t59 -18q21 -13 34 -34
q27 9 51.5 23.5t45.5 33.5q-6 11 -9 23.5t-3 25.5q0 43 29.5 74.5t72.5 34.5q5 27 5 54q0 14 -1.5 28t-3.5 27q-21 2 -40 11t-32.5 23.5t-21.5 33.5t-8 41zM515 178q-50 0 -86 36t-36 86q0 15 3 28.5t9 25.5t14.5 23t19 19t22.5 14t26 9.5t28 3.5q51 0 87 -36t36 -87
q0 -20 -6.5 -38.5t-17.5 -33.5t-26 -26.5t-34 -17.5t-39 -6zM515 802q-102 0 -195 -40t-160 -107t-106.5 -160t-39.5 -195t39.5 -194.5t106.5 -160t160 -107t195 -39.5q82 0 158.5 25t138 71.5t108 108.5t72 138.5t25.5 157.5q0 102 -40 195t-107 160t-160 107t-195 40z
M819 229v0v-1v0l-1 -1v0v-1v-1h-1v-1h-1v-1l-1 -1h-1v-1h-1v-1h-1v0h-1v-1h-1h-1h-1h-1l-1 -1l-1 1v0h-3q-10 0 -19 -2.5t-17 -6.5t-15 -9.5t-12.5 -12.5t-9.5 -15t-6.5 -17t-2.5 -19q0 -24 13 -44l1 -1v-1h1v-1v0v-1v-1v0v-1q1 0 1 -1v0v-1v-1l-1 -1v-1v-1v-1v0l-1 -1v-1
h-1v-1h-1v-1h-1q-26 -26 -58.5 -45t-67.5 -29q0 -1 -1 -1h-1h-1h-1v0h-1v0h-1v0h-1l-1 1h-1v0h-1v1q-1 0 -2 1h-1v1h-1v1v0h-1v1v1h-1v1q-10 21 -30 34t-44 13q-12 0 -23 -3.5t-21 -9.5q-10 -7 -17.5 -15.5t-12.5 -18.5l-1 -2v-1h-1v-1v0l-1 -1h-1v0l-1 -1l-1 -1h-1v0h-1v-1
h-2h-1h-1h-1v0h-1h-1l-1 1q-71 21 -125 73h-1v1h-1v1v0l-1 1v1v1h-1v1v1v0v1v1v1v1v1v1v0v2h1v0v1q1 0 1 1v0q7 10 10 21.5t3 23.5q0 13 -4 25.5t-11.5 22.5t-17.5 17.5t-22.5 12t-25.5 4.5h-2q-1 0 -2 -1h-2l-1 1v0h-1v0h-1h-1v0q-1 0 -1 1h-1v0l-1 1h-1q0 1 -1 1v1h-1v1
h-1v1v1h-1v1v1l-1 1q-4 17 -6 35t-2 36q0 37 8 72h1v1v1v1h1v1h1v1v0l1 1v0q0 1 1 1v0l1 1h1v1h1h1v1h1h1h1v0h1h1h5q34 0 58 24t24 58q0 24 -14 45l-1 1v0v1l-1 1v1v0v1v0v1v1v1v1v0v1v1v0q0 1 1 1v1v0v1h1v1v0l1 1q0 1 1 1q26 25 58 44t67 29h1v1h1v0h1h1h1v0h1h1l1 -1h1
v0h1v-1h1v0h1v-1h1v0l1 -1v0q0 -1 1 -1v0v-1h1v-1v0v-1q10 -21 30 -34t44 -13t44 13t30 34v0q0 1 0.5 1t0.5 1l1 1v0l1 1v0v1h1h1v1h1v0l1 1v0h1h1v0v1h1v0h1h1v0h1h1h1v-1h1q72 -21 126 -74h1v0v-1h1v-1h1v-1v0q0 -1 1 -1v-1v-1v-1v0l1 -1v-1v-1v-1l-1 -1v-1v0v-1v0v-1
q-1 0 -1 -1l-1 -1q-4 -6 -7 -13.5t-4.5 -15t-1.5 -15.5q0 -17 6.5 -32t17.5 -26t26 -17.5t32 -6.5h3h1h1h1q6 -1 10 -6v-2l1 -1v-1q8 -35 8 -72q0 -18 -2 -36t-6 -35z" />
    <glyph glyph-name="uniE60A" unicode="&#xe60a;" 
d="M509 802q-102 0 -195 -40t-160 -107t-107 -160t-40 -195t40 -195t107 -160t160 -107t195 -40t195 40t160 107t106.5 160t39.5 195q0 59 -13 115t-38 105.5t-59 93t-77.5 78t-93 59t-106 38t-114.5 13.5zM776 342h-257v-135h257v-21h-257v-257h-21v257h-256v21h256v135
h-256v21h149l-111 263l20 8l114 -271h84h21h88l114 271l20 -8l-111 -263h146v-21z" />
    <glyph glyph-name="uniE60B" unicode="&#xe60b;" 
d="M286 491v-177q0 -104 63.5 -185t165.5 -105q103 24 166 105t63 185v177q-64 4 -121 22.5t-108 53.5q-20 -14 -42 -25.5t-44 -20t-45.5 -15t-47.5 -10t-50 -5.5zM664 398q3 -3 3 -8t-3 -8l-165 -173l-2 -4q-5 -5 -12 -3q-1 1 -2.5 1.5t-2.5 1.5t-1 3l-112 118q-3 3 -3 7.5
t3 8.5q8 6 15 0l106 -112l160 168q8 8 16 0zM515 803q-68 0 -133 -18t-120 -50.5t-101.5 -78.5t-78.5 -101t-50 -120t-18 -133q0 -82 25 -158.5t71.5 -138t108 -108t138.5 -72t158 -25.5q102 0 195 40t160 107t107 160t40 195q0 81 -25.5 157.5t-72 138.5t-108 108.5
t-138 71.5t-158.5 25zM770 314q0 -112 -70.5 -200.5t-181.5 -114.5h-2h-4q-110 26 -180.5 114.5t-70.5 200.5v202h13q63 3 122 24.5t113 59.5l6 5l7 -5q110 -78 235 -84h13v-202z" />
    <glyph glyph-name="uniE60C" unicode="&#xe60c;" 
d="M817 484q0 3 -1 6t-3.5 5t-5.5 3.5t-6 1.5h-397v-52q0 -9 -9 -9h-4q-1 0 -3 0.5t-3 1.5t-1.5 3t-0.5 4v52h-166q-7 0 -12 -5t-5 -11v-88q14 -2 26 -7.5t21.5 -14t17 -19.5t11 -24t3.5 -27q0 -23 -10 -43t-28.5 -32.5t-40.5 -16.5v-102q0 -6 5 -11t12 -5h166v52q0 9 8 9h4
q9 0 9 -9v-52h397q6 0 11 5t5 11v102q-35 3 -59 29.5t-24 62.5t24 62.5t59 30.5v87zM404 202q0 -9 -9 -9h-4q-8 0 -8 9v67q0 9 8 9h4q9 0 9 -9v-67zM404 325q0 -9 -9 -9h-4q-8 0 -8 9v67q0 9 8 9h4q9 0 9 -9v-67zM509 799q-102 0 -195 -40t-160 -107t-107 -160t-40 -195
t40 -195t107 -160t160 -106.5t195 -39.5t195 39.5t160 106.5t106.5 160t39.5 195q0 46 -8 90.5t-23 85t-37 78t-50 70t-60.5 60t-70 49.5t-78 37.5t-85 23.5t-89.5 8zM839 396v-19q-3 1 -6 1h-6q-31 0 -52.5 -21.5t-21.5 -52t21.5 -52.5t52.5 -22q3 0 6 0.5t6 0.5v-19v-106
q0 -15 -10.5 -25.5t-25.5 -10.5h-408h-4h-177q-15 0 -25.5 10.5t-10.5 25.5v105h1h5h1h-7v20q5 -1 8 -1q31 0 52.5 22t21.5 52.5t-21.5 52t-52.5 21.5h-8v19h4h3h-1h-4h-2v91q0 15 10.5 25.5t25.5 10.5h177h4h408q15 0 25.5 -10.5t10.5 -25.5v-92z" />
    <glyph glyph-name="uniE60D" unicode="&#xe60d;" 
d="M633 445q0 47 -33.5 80.5t-80.5 33.5q-24 0 -45 -9t-36.5 -24.5t-24.5 -36.5t-9 -44q0 -47 33.5 -80.5t81 -33.5t81 33.5t33.5 80.5zM519 302q-90 0 -154 -63.5t-64 -152.5v-37h435v37q0 89 -63.5 152.5t-153.5 63.5zM522 786q-68 0 -132.5 -17.5t-119.5 -50t-101 -78.5
t-78 -100.5t-50 -119.5t-18 -133q0 -101 39.5 -193.5t106.5 -159.5t159 -106.5t194 -39.5t194 39.5t159 106.5t106.5 159.5t39.5 194t-39.5 194t-106.5 159t-159 106t-194 39.5zM221 126q-2 -14 -3 -29h-35q-3 0 -5.5 1.5t-4.5 3t-3 4.5t-1 5v40q0 36 12.5 69.5t36.5 59.5
t56 43l13 7l-10 11q-31 33 -31 78q0 44 29.5 77t72.5 39q-5 -8 -9.5 -16.5t-7.5 -17.5q-25 -10 -40.5 -32.5t-15.5 -49.5q0 -26 14 -48t38 -32v-1h1q10 -3 10 -13q0 -4 -3 -7.5t-7 -5.5l-5 -1q-37 -9 -65.5 -32.5t-44 -56.5t-15.5 -71v-25h23zM765 35q0 -3 -1 -6t-3 -4.5
t-4.5 -3t-5.5 -1.5h-465q-6 0 -10 4.5t-4 10.5v51q0 37 11 72.5t33 66.5q21 30 49 52.5t62 35.5l19 7l-16 13q-55 43 -55 112q0 38 19.5 71t52.5 52t72 19q59 0 101 -41.5t42 -100.5q0 -33 -14.5 -62.5t-40.5 -49.5l-16 -13l19 -7q17 -7 32.5 -16t29.5 -20t26.5 -24.5
t23.5 -27.5q43 -63 43 -139v-51zM868 111q0 -5 -4 -9.5t-10 -4.5h-35q-1 14 -3 29h23v25q0 57 -35 101.5t-90 58.5l-5 1q-4 2 -7 5.5t-3 7.5q0 10 10 13l1 1q24 10 38 32t14 48q0 27 -15.5 49.5t-40.5 32.5q-7 18 -17 34q43 -6 72.5 -39t29.5 -77q0 -45 -31 -78l-10 -11
l13 -7q32 -17 56 -43.5t36.5 -59.5t12.5 -69v-40z" />
    <glyph glyph-name="uniE60E" unicode="&#xe60e;" 
d="M758 35v1v-1zM661 394.5q0 66.5 -46.5 113t-113 46.5t-113 -46.5t-46.5 -113t46.5 -113t113 -46.5t113 46.5t46.5 113zM758 36v1v-1zM502 805q-102 0 -195 -40t-160.5 -107t-107 -160t-39.5 -195t39.5 -195t107 -160t160.5 -106.5t195 -39.5t194.5 39.5t160 106.5
t107 160t39.5 195t-39.5 195t-107 160t-160 107t-194.5 40zM758 35q-2 -13 -15 -13q-7 0 -11.5 4.5t-4.5 10.5q-15 48 -47.5 86t-79 59.5t-99.5 21.5q-78 0 -140.5 -48t-84.5 -122v3q0 -4 -3 -8t-6.5 -5.5t-6.5 -1.5q-4 0 -7.5 2t-5.5 5.5t-2 7.5q0 1 0.5 2.5t0.5 2.5v2
q19 63 65.5 110.5t109.5 67.5q-49 24 -79 70t-30 102q0 52 25 96t69 69t95 25q31 0 60 -9.5t52.5 -27t41 -41t27 -52.5t9.5 -60q0 -37 -13.5 -71t-38.5 -59.5t-57 -41.5q63 -19 109.5 -67t65.5 -111v-5l1 -2v-1v-1z" />
    <glyph glyph-name="uniE60F" unicode="&#xe60f;" 
d="M509 801q-102 0 -195 -39.5t-160 -107t-107 -160.5t-40 -195t40 -194.5t107 -160t160 -107t195 -39.5t195 39.5t160 107t106.5 160t39.5 194.5q0 186 -120 327q-116 134 -289 166q-45 9 -92 9zM509 -178q-97 0 -185.5 38t-152.5 102t-101.5 152t-37.5 185t37.5 185.5
t101.5 152.5t152.5 102t185.5 38q78 0 150.5 -24.5t131 -68.5t103 -102.5t68.5 -131.5t24 -151q0 -97 -38 -185t-101.5 -152t-152 -102t-185.5 -38zM697 -13q-47 0 -82 31t-40 78q-4 28 4 49v2v0l-2 2q-119 118 -219 219q-2 2 -3 2h-1q-1 0 -2 -1q-16 -4 -33 -4
q-44 0 -78 27.5t-43 70.5q-8 42 9 77l2 4l6 1q10 2 17 -7l1 -1l13 -13l15 -15q24 -25 36 -36q22 -22 41 -3q9 8 8 19q0 11 -11 22l-49 49l-35 34l16 7q28 11 54 11q29 0 56 -14q25 -13 42 -36.5t22 -50.5t-2 -55q-1 -4 2 -7l217 -217q2 -2 4 -2h4q9 2 17.5 3t16.5 1
q52 0 90 -41q48 -54 25 -122q-6 -17 -16 -17q-8 0 -16 9q-21 22 -64 64l-1 1q-14 14 -30 8q-15 -6 -17 -22q-1 -5 0 -9t4 -8.5t7 -8.5l18 -18l14 -14l18 -18l32 -31l-13 -7q-26 -13 -54 -13zM355 392q10 0 18 -9q99 -98 220 -219q11 -11 6 -26q-6 -17 -3 -40q5 -38 33.5 -64
t67.5 -26q15 0 30 5l-10 10q-33 32 -50 49q-21 21 -17 45q1 9 5 16.5t10.5 13.5t15.5 9q6 3 13 3.5t14 -1t13 -5.5t12 -9l1 -1l22 -21l18 -20q12 -11 21 -21q6 18 5.5 35t-7.5 32.5t-20 30.5q-40 45 -102 30q-5 -1 -9 -1h-4l-4 2q-2 0 -4 1t-4 2.5t-3 2.5q-53 53 -106.5 107
t-111.5 111q-12 12 -7 28q10 34 -4.5 67t-46.5 50q-36 19 -76 7l10 -10l13 -13l12 -11l13 -14l12 -12q16 -17 17 -36q1 -21 -15 -36q-1 -2 -3 -3.5t-4 -2.5t-4 -2.5t-4 -2t-4 -1.5t-4.5 -1.5t-4.5 -0.5h-5q-20 0 -38 17l-36 36l-14 13l-11 12q-3 -12 -3.5 -24.5t1.5 -26.5
q5 -23 19.5 -41.5t35.5 -29t45 -10.5q14 0 27 4q5 2 9 2zM509 299z" />
    <glyph glyph-name="uniE610" unicode="&#xe610;" 
d="M514 802q-102 0 -195 -40t-160 -107t-107 -160t-40 -195t40 -195t107 -160t160 -106.5t195 -39.5t194.5 39.5t160 106.5t107 160t39.5 195q0 82 -25 158.5t-71.5 138t-108.5 108t-138.5 72t-157.5 25.5zM514 -177q-97 0 -185.5 38t-152.5 101.5t-101.5 152t-37.5 185.5
t37.5 185.5t101.5 152.5t152.5 101.5t185.5 37.5q64 0 126 -17t114.5 -48t96.5 -75t74.5 -96t48 -114t17.5 -127q0 -97 -38 -185.5t-102 -152t-152 -101.5t-185 -38zM789 25h-75v75h75v-75zM735 47h32v32h-32v-32zM679 25h-75v75h75v-75zM626 47h32v32h-32v-32zM570 25h-75
v75h75v-75zM516 47h32v32h-32v-32zM268 26q-8 0 -14 2t-9 7q-9 10 -6 31q1 9 6 25q4 15 10 34q2 9 4.5 17t5.5 15q2 5 3 9t2 7l3 5q2 5 4.5 9t4.5 8q3 4 6.5 8t7.5 9l2 1q0 1 1 1q7 8 14 15l33 33l229 231l128 -129l-137 -137l-48 -49l-23 -23l-20 -20q-22 -22 -32 -33
l-11 -10q-3 -4 -5 -5q-6 -6 -14 -12q-9 -6 -18 -11q-8 -4 -25 -10q-4 -1 -8.5 -2.5t-8.5 -3t-8.5 -3t-9.5 -3.5q-9 -3 -17.5 -5.5t-16.5 -4.5t-14.5 -3.5t-10.5 -2t-8 -0.5zM261 49q2 -2 7 -2q1 0 2.5 0.5t2.5 0.5q7 1 23 5t33 10q17 5 33 11q8 3 14 5.5t10 4.5q7 4 14 9
t13 11h1l14 14q6 6 13.5 14t18.5 18l13 13l15 15l15 15l48 49l121 122l-97 98l-214 -215q-18 -19 -32 -33l-16 -16l-1 -1q-4 -4 -7 -7.5t-5 -6.5l-7 -14l-1 -1q-2 -4 -7 -18q-1 -5 -2.5 -10t-3.5 -10.5t-3 -10.5q-6 -19 -10 -33l-5 -23q-1 -5 -1 -8.5v-4.5zM732 394
l-127 128l8 8q6 6 17 16t17 15q10 8 21 12q10 2 20 2h2q10 0 19 -3q9 -2 16 -6q14 -7 31 -25t26 -38q2 -6 4 -15q2 -8 2 -17q0 -10 -4 -20q-2 -5 -5 -9.5t-6 -8.5q-7 -7 -14 -13q-5 -6 -10 -10l-9 -9zM636 522l97 -98q0 1 1 1q2 3 4.5 5.5t5.5 4.5l13 13q2 2 4 5t3 6l2 12
q0 7 -1 13t-3 10q-3 5 -6 10.5t-7 11t-9 10.5q-14 15 -25 21q-5 2 -12 4t-14 3h-1h-5l-4 -2h-4q-7 -2 -14 -8q-6 -5 -16 -14q-7 -6 -9 -8z" />
    <glyph glyph-name="uniE611" unicode="&#xe611;" 
d="M672 206l-10 -2q-12 0 -22 10q-87 88 -217 217q-14 14 -9 32q10 32 -4 64.5t-45 48.5q-32 17 -67 8l5 -6q34 -33 50 -50q9 -8 13.5 -18t4.5 -20q1 -11 -3 -21t-12 -18q-8 -7 -17 -11t-19 -4q-5 0 -10.5 1.5t-10.5 3.5t-10 5.5t-10 8.5l-36 36l-7 7l-6 6l-7 7
q-5 -20 0 -43q7 -34 34 -56t62 -22q13 0 26 4q6 1 10 1q12 0 21 -9q98 -99 219 -219q13 -13 8 -30q-6 -16 -3 -38q3 -24 16.5 -44t35 -31.5t45.5 -11.5q11 0 23 3l-6 6q-32 32 -50 49q-21 21 -18 47q4 31 33 42q10 4 20 4t19 -4.5t18 -12.5l1 -1q38 -37 57 -57q12 49 -23 88
q-40 44 -99 30zM512 801q-102 0 -195 -39.5t-160 -107t-107 -160.5t-40 -195t40 -194.5t107 -160t160 -107t195 -39.5t195 39.5t160 107t107 160t40 194.5q0 186 -121 327q-115 134 -288 166q-47 9 -93 9zM818 69q-1 -3 -2 -5.5t-3.5 -6t-6 -5t-8.5 -1.5q-8 0 -18 10
q-20 21 -64 64l-1 1q-6 6 -12 7.5t-14 -1.5q-13 -5 -14 -18q-2 -12 10 -24q7 -7 16.5 -16t16 -16t16.5 -17l36 -35l-18 -9q-26 -14 -55 -14q-48 0 -84 32t-42 80q-4 29 4 51q-25 24 -48 47.5t-45.5 45.5t-43.5 43.5t-42 42.5l-41 41h-2q-17 -5 -34 -5q-45 0 -80.5 28.5
t-43.5 72.5q-9 44 9 79l3 7l7 1q12 2 21 -9v-1q10 -9 29 -28l36 -36q19 -19 36 -3q3 4 5 8t2 8q-1 5 -3.5 10t-6.5 10l-22 22l-28 28l-38 38l20 8q29 12 56 12q10 0 20 -1.5t19 -5t19 -8.5q40 -20 57.5 -61.5t5.5 -84.5v-2l1 -1l218 -218q0 -1 1 -1h1q1 1 2 1q9 2 17.5 3
t17.5 1q54 0 92 -43q50 -55 26 -126z" />
    <glyph glyph-name="uniE612" unicode="&#xe612;" 
d="M512.5 -185q-98.5 0 -188.5 38.5t-155 103.5t-103.5 155t-38.5 188.5t38.5 188.5t103.5 155.5t155 104t188.5 38.5t188.5 -38.5t155.5 -104t104 -155.5t38.5 -188.5t-38.5 -188.5t-104 -155t-155.5 -103.5t-188.5 -38.5zM513 759q-93 0 -178 -36t-146.5 -97.5t-98 -146.5
t-36.5 -178t36.5 -178t98 -146.5t146.5 -98t178 -36.5t178 36.5t146.5 98t97.5 146.5t36 178q0 74 -23 144t-65.5 126.5t-99 99t-126.5 65.5t-144 23zM623 -6q-24 0 -52.5 8t-54 20t-52 28.5t-45.5 30.5t-38 29.5t-26 22t-11 10.5q-6 5 -14.5 14t-27.5 32.5t-35 47t-31 56.5
t-20.5 63t1 63.5t29.5 61.5q5 10 12.5 19t17 17t21.5 12.5t25 4.5q43 0 84 -51q48 -62 35 -110q-9 -32 -41 -48q-14 -16 -14 -26q1 -2 4 -5q39 -30 130 -111l4 -4q2 -3 6 -6.5t9 -6t9 -2.5h1t2.5 0.5t3.5 1.5t4 3q28 23 46.5 33t36.5 10q26 0 56 -22q73 -54 66 -105
q-2 -16 -12 -30t-28 -26.5t-44 -22.5q-13 -6 -27 -9t-30 -3zM322 506q-11 0 -20.5 -4.5t-16.5 -12.5t-10 -13t-6 -9l-1 -2q-73 -89 38 -238q29 -37 57 -65q52 -49 127 -95t133 -46q26 0 45 10h1q64 25 68 58q5 34 -55 79q-5 3 -9 6t-8 5t-8 3.5t-7.5 2t-7.5 0.5
q-21 0 -65 -36q-7 -6 -14.5 -9.5t-14.5 -3.5q-8 0 -16 3.5t-14.5 8.5t-9.5 8t-5 6l-1 1q-13 11 -30 26t-49.5 43t-49.5 40q-6 6 -9.5 12.5t-4.5 13.5q-1 23 23 48l2 1l2 2q22 10 29 32q9 34 -31 85q-32 40 -62 40zM654 249q-6 0 -12 1q-41 11 -41 82v4q-2 6 -6.5 12.5
t-14.5 18t-25.5 18.5t-34.5 6h-4q-28 0 -43.5 18.5t-10.5 47.5q2 13 10.5 22t21.5 14t30 5q16 0 32 -5q7 -2 18 -6t35.5 -19.5t44 -35t35.5 -54t18 -75.5v-4l-1 -3q-5 -20 -18.5 -33.5t-33.5 -13.5zM524 419q20 0 37.5 -7t28.5 -17t20 -21.5t13 -19.5t5 -12v-2q1 -1 1 -3v-6
q-1 -23 3 -37t17 -17q3 -1 5 -1q4 0 7.5 1.5t6 3.5t4.5 5t3.5 5.5t2.5 5t1 3.5t1 2q-2 35 -16 65t-31 47t-38.5 30.5t-31 17t-15.5 5.5t-12 3t-12 1q-32 0 -35 -19q-1 -4 -1 -7.5t0.5 -6.5t1.5 -6t3 -5q5 -5 11 -7t12 -2q1 0 2 1h6zM757 313q-10 0 -20 5q-35 15 -42 95v2v1
l-1 2q-1 6 -8 16.5t-19 24.5t-33 23t-44 7q-34 -2 -53 21q-9 10 -12 23t0 30q3 13 12 23.5t24 16t34 5.5t37 -6q9 -2 22 -7.5t42.5 -24t52.5 -41.5t42.5 -64.5t21.5 -89.5v-4l-1 -4q-5 -21 -19.5 -37.5t-35.5 -16.5zM596 517q29 0 54 -12.5t39.5 -30t22.5 -30.5t9 -20v-1
q0 -2 1 -6v-1q5 -64 26 -73q2 -1 4.5 -1.5t4.5 -0.5q9 0 16 8.5t9 14.5t3 10q-1 43 -18.5 79.5t-38 57.5t-47 37.5t-38 21t-19.5 6.5q-14 4 -29 4q-18 0 -29.5 -6t-13.5 -16q-4 -20 5 -31t28 -11q1 0 2 1h1h8z" />
    <glyph glyph-name="uniE613" unicode="&#xe613;" 
d="M984 499q-39 92 -110 163t-163 110q-95 40 -199 40t-199 -40q-92 -39 -163 -110t-110 -163q-40 -95 -40 -199t40 -199q39 -92 110 -163t163 -110q47 -20 97 -30t102 -10q104 0 199 40q92 39 163 110t110 163q40 95 40 199t-40 199zM723 83q-10 -10 -25 -10t-26 10
l-164 164l-164 -164h-1q-10 -11 -25 -11t-26 11t-11 26t11 25l164 165l-164 164q-11 11 -11 26t11 25q10 11 25 11t26 -11l164 -164l164 165h1q10 10 25 10t26 -10.5t11 -25.5t-11 -26l-164 -164l164 -164q11 -11 11 -26t-11 -26z" />
    <glyph glyph-name="uniE614" unicode="&#xe614;" horiz-adv-x="1086" 
d="M601 803q-13 6 -27 8t-27.5 0t-26 -7.5t-23.5 -14.5l-278 -258h-133q-35 0 -60.5 -25t-25.5 -61v-291q0 -23 11.5 -43t31.5 -31.5t43 -11.5h133l278 -258h1q27 -22 62 -22q20 0 39 8q54 23 60 82v4v5v826v3q-1 29 -16.5 52t-41.5 35zM606 -98q0 -2 -1 -6q-2 -32 -32 -44
q-29 -13 -54 7l-274 254q-5 4 -12 5h-4h-134q-17 0 -29.5 12t-12.5 29v281q0 17 12.5 29t29.5 12h133h1q2 0 4 1h4q2 1 3.5 2t3.5 2l274 254q8 7 17.5 10t19.5 2.5t20 -5.5q30 -13 31 -46v-2v-797zM1026 548q-51 102 -139 175q-3 3 -7.5 4t-8.5 0.5t-8 -2.5t-7 -6
q-2 -2 -3 -5.5t-1.5 -6.5t0.5 -6.5t3 -6t4 -5.5q58 -48 99 -109t62.5 -132t21.5 -147q0 -113 -47.5 -213.5t-133.5 -172.5q-7 -6 -8 -15t5 -16q5 -7 14.5 -8t16.5 5q87 73 138 174q58 116 58 246q0 131 -59 247zM762 538q-7 6 -16.5 4.5t-14.5 -9.5q-5 -7 -4 -15.5t8 -13.5
q47 -37 72.5 -91t25.5 -113t-25 -112.5t-71 -90.5q-2 -2 -4 -5t-3 -6t-1 -6t1 -6.5t3 -5.5q6 -8 15.5 -9.5t16.5 4.5q53 44 82.5 106t29.5 131t-30 132t-85 106zM762 538z" />
    <glyph glyph-name="uniE615" unicode="&#xe615;" 
d="M512 808q-83 0 -160.5 -25.5t-140 -72.5t-109 -109.5t-72.5 -140t-26 -160.5t26 -160.5t72.5 -140t109 -109.5t140 -72.5t160.5 -25.5q103 0 197 40.5t162 108.5t108.5 162t40.5 197t-40.5 197t-108.5 162t-162 108.5t-197 40.5zM547 55h-58v402q-38 -38 -96 -73v56
l14 10q7 5 13.5 10.5t13 10.5t13 11t12.5 11.5t11.5 11.5t11 12.5t10.5 12.5t10 12.5t10 13.5h35v-501z" />
    <glyph glyph-name="uniE616" unicode="&#xe616;" 
d="M512 808q-103 0 -197 -40.5t-162 -108.5t-108.5 -162t-40.5 -197t40.5 -197t108.5 -162t162 -108.5t197 -40.5t197 40.5t162 108.5t108.5 162t40.5 197t-40.5 197t-108.5 162t-162 108.5t-197 40.5zM653 173.5q-7 -56.5 -50.5 -91.5t-99 -33.5t-96.5 35t-52 97.5l52 8
q6 -19 15.5 -34.5t22.5 -27.5q26 -25 65.5 -23.5t62.5 32t20.5 70t-30.5 61t-89 30.5v38q31 3 53 11t36 21q28 26 25 68.5t-38 61t-74.5 4t-62.5 -81.5l-52 9q5 18 12.5 33.5t16 29t19.5 24.5q15 18 35.5 28t47 13t49.5 -0.5t42.5 -12.5t33.5 -24t22 -34q16 -40 4 -86
q-4 -16 -12.5 -30t-22.5 -27t-32 -25q41 -17 62.5 -52t14.5 -91.5z" />
    <glyph glyph-name="uniE617" unicode="&#xe617;" 
d="M512 808q-83 0 -160.5 -26t-140 -72.5t-109 -109t-72.5 -140t-26 -160.5q0 -103 40.5 -197t108.5 -162t162 -108.5t197 -40.5t197 40.5t162 108.5t108.5 162t40.5 197t-40.5 197t-108.5 162t-162 108.5t-197 40.5zM655 55h-294v12q1 22 11 41.5t29 37t43 45t53 64.5
q59 74 76.5 115t12.5 70q-1 5 -2 9.5t-3 8.5l-4 8q-2 4 -5 8l-6 8l-7 6q-12 9 -25.5 13t-28.5 3q-31 -3 -58 -24q-6 -4 -11 -8.5t-9.5 -10.5t-8.5 -12.5t-7.5 -14t-6.5 -15.5l-55 9q23 67 59.5 97.5t86.5 33.5q14 1 27 1t25 -2q8 -2 16 -4.5t16 -6.5t16 -9.5t15.5 -12.5
t13.5 -16t12 -20q8 -16 11 -35t0 -42q-4 -45 -45 -107.5t-157 -196.5h210v-53z" />
    <glyph glyph-name="uniE618" unicode="&#xe618;" horiz-adv-x="1025" 
d="M619 611q15 40 44.5 67.5t67.5 23.5q29 -1 52 -19.5t33.5 -43.5t7 -54t-24.5 -50q-32 -29 -108.5 -57t-105.5 -49q-6 -7 -11 -14.5t-9 -16.5t-7 -16.5t-6.5 -17.5t-6.5 -17q107 31 258 101q40 18 65.5 57t28.5 82.5t-16 86.5q-26 58 -88.5 85.5t-122.5 5.5
q-78 -25 -122 -136q-33 -84 -106 -259q-174 -73 -259 -106q-50 -20 -86 -49.5t-50 -72.5q-5 -15 -7.5 -30.5t-1.5 -31t4.5 -31t10 -30t15.5 -27.5t19.5 -24.5t23.5 -21t27 -15.5q43 -19 86.5 -16t82.5 28.5t56 65.5q71 151 102 258q-7 -3 -17 -6.5t-17.5 -6.5t-16.5 -7
t-16.5 -9t-14.5 -11q-19 -26 -34.5 -68t-32 -81t-39.5 -65q-21 -21 -50 -24.5t-54 7t-43.5 33.5t-19.5 52q-4 38 23.5 67.5t67.5 44.5q98 39 297 121zM923 78q-68 -20 -118.5 -70.5t-70.5 -118.5q27 -11 61 -25q14 56 55.5 97.5t97.5 55.5q-8 18 -14 32.5t-11 28.5zM908 149
q-14 34 -25 56q-97 -33 -170 -106t-106 -170q23 -12 56 -25q28 87 93 152t152 93zM964 -55q-15 -1 -29 -7t-25.5 -15t-20.5 -20.5t-14.5 -25.5t-7.5 -29q92 -38 157 -60q-22 65 -60 157zM843 266q-53 42 -124 44.5t-126 -36.5q-65 -42 -85.5 -122.5t16.5 -148.5
q5 -9 10.5 -17.5t11.5 -16.5q28 67 72 124t101 101t124 72zM71 577h69l9 -7q-28 -56 -18 -120.5t57 -110.5l285 285q-12 12 -25 21.5t-27 16.5t-29 12t-30 7t-30.5 2.5t-30.5 -2t-30 -7t-29 -11.5l-7 9v69q9 4 14.5 11.5t7 16.5t-1.5 18q-3 10 -11 16.5t-17 8t-19 -1.5
q-15 -5 -21.5 -19t-1.5 -29q5 -12 16 -19v-84l11 -14q-6 -4 -12.5 -9.5t-11.5 -11.5q-12 -11 -21 -24l-14 11h-84q-7 11 -20 16q-9 3 -18.5 1.5t-17 -8t-11.5 -16.5q-5 -14 1.5 -28t21.5 -19q13 -5 26.5 1t19.5 19z" />
    <glyph glyph-name="uniE619" unicode="&#xe619;" 
d="M509 800q-102 0 -195 -39.5t-160 -106.5t-107 -160t-40 -195t40 -195t107 -160t160 -107t195 -40t195 40t160 107t106.5 160t39.5 195t-39.5 195t-106.5 160t-160 106.5t-195 39.5zM509 -178q-97 0 -185.5 37.5t-152.5 101.5t-101.5 152.5t-37.5 185.5t37.5 185.5
t101.5 152t152.5 101.5t185.5 38q78 0 150.5 -24t131 -68t103 -103t68.5 -131.5t24 -150.5q0 -179 -117 -313q-113 -130 -282 -158q-39 -6 -78 -6zM683 445zM313 345h-70q-12 0 -22.5 -6t-16 -16t-5.5 -22v-141q0 -18 13 -31t31 -13h70q19 0 32 13t13 31v141q0 18 -13 31
t-32 13zM335 160q0 -9 -6.5 -15t-15.5 -6h-70q-9 0 -15 6t-6 15v141q0 6 2.5 10.5t7.5 7.5t11 3h70q9 0 15.5 -6t6.5 -15v-141zM544 610h-70q-19 0 -32 -13t-13 -31v-406q0 -18 13 -31t32 -13h70q18 0 31 13t13 31v406q0 18 -13 31t-31 13zM565 160q0 -3 -0.5 -5.5t-2 -5
t-3.5 -4.5t-4.5 -3.5t-5 -2t-5.5 -0.5h-70q-6 0 -11 2.5t-8 7.5t-3 11v406q0 4 2 8t4.5 7t6.5 4.5t9 1.5h70q9 0 15 -6t6 -15v-406zM774 490h-70q-12 0 -22 -6t-16 -16.5t-6 -22.5v-285q0 -18 13 -31t31 -13h70q8 0 14.5 2t12 6t9.5 9.5t6.5 12.5t2.5 14v285q0 19 -13 32
t-32 13zM796 160q0 -9 -6.5 -15t-15.5 -6h-70q-2 0 -4.5 0.5t-4.5 1.5t-4 2.5t-3.5 3t-2.5 4t-1.5 4.5t-0.5 5v285q0 9 6 15.5t15 6.5h70q9 0 15.5 -6.5t6.5 -15.5v-285zM819 28q0 -3 -1.5 -5.5t-4 -4t-6.5 -1.5h-597q-4 0 -7.5 3t-3.5 8t3.5 8.5t7.5 3.5h597q4 0 6.5 -2
t4 -4.5t1.5 -5.5z" />
    <glyph glyph-name="uniE61A" unicode="&#xe61a;" 
d="M515 805q-185 0 -326 -121q-134 -115 -167 -288q-8 -46 -8 -93q0 -102 39.5 -195t106.5 -160t160 -106.5t195 -39.5t195 39.5t160 106.5t107 160t40 195t-40 195t-107 160t-160 107t-195 40zM515 -174q-97 0 -185.5 38t-152 101.5t-101.5 152t-38 185.5t38 185.5
t101.5 152.5t152 101.5t185.5 37.5q78 0 151 -24t131.5 -68t102.5 -102.5t68 -131.5t24 -151q0 -178 -117 -313q-113 -129 -281 -157q-40 -7 -79 -7zM515 303zM619 40q-1 0 -2 0.5t-2 0.5q-61 5 -118 27q-108 41 -176 124q-4 5 -6 10.5t-2 11t3 11.5q8 17 28 18
q24 0 48.5 4.5t49.5 14.5q47 18 73 48q1 1 2 3t3 4t2.5 3.5t2.5 3.5q4 6 6 8l5 8l53 -30l-7 -9q-1 -2 -2.5 -4t-3.5 -5q-2 -4 -3.5 -6.5t-4.5 -6t-5 -5.5q-11 -15 -26.5 -27.5t-35.5 -23.5q-41 -23 -93 -34q7 -6 13.5 -11t12.5 -9q29 6 47 23l24 23l-6 -33q-2 -11 -24 -38
q13 -6 20 -10q12 -7 29 0q10 5 21 11.5t18.5 12.5t16.5 14q2 2 6 5l30 26l-9 -34q-4 -17 -34 -61h3q6 -1 17 -3l15 -3q15 24 28.5 49.5t25.5 55.5q2 3 3.5 7t3 8.5l2.5 7.5l3 7q1 3 1.5 5t1.5 4.5t2 4.5l5 15l57 -20l-5 -16q-3 -9 -5 -13q-31 -86 -74 -150q-1 -1 -2 -2.5
t-2 -3.5q-1 -1 -2 -2.5t-2 -2.5q-10 -16 -30 -16zM543 312q-7 -11 -12 -16q-29 -35 -82 -55q-26 -9 -52.5 -14.5t-52.5 -5.5q-6 0 -9 -5q-1 -2 -0.5 -4.5t3.5 -6.5q64 -78 167 -117q13 -5 27 -9t28 -7.5t28 -5.5t29 -4h2q5 0 7.5 1.5t4.5 4.5q1 1 2 2.5t2 3.5l4 5
q5 7 9.5 14.5t8.5 14.5t8.5 15t8.5 15.5t8 16t7.5 17t7.5 17t7 17.5t7 18q1 4 3 9l-17 6q0 -3 -1 -5l-2 -4q-7 -21 -12 -31q-25 -62 -57 -110q-1 -2 -2.5 -3.5t-5 -3.5t-7.5 -2l-4 1q-3 0 -7 1t-9 2q-12 1 -18 2q-4 1 -13 3q-5 2 -6 2l-15 3l9 14q9 12 15 23
q-15 -10 -29 -16q-7 -3 -13.5 -4.5t-11.5 -1.5q-7 0 -13 1.5t-11 4.5t-9.5 5.5t-12 6t-10.5 4.5l-12 6l9 11l3 3q-7 -2 -14 -3q-4 -1 -8.5 0t-7.5 3q-5 3 -9.5 7t-9.5 7.5t-11 8.5q-2 2 -4.5 4t-5.5 5l-5 5l-16 14l23 5h2q20 3 38.5 8t35 11.5t31.5 15.5q17 9 31 20.5
t24 24.5q3 3 5.5 7t6.5 9zM745 258l-205 91l4 10q9 21 29 32q15 9 32 10t34 -6q45 -20 74 -33q25 -11 36 -35t3 -51q0 -2 -2 -5zM570 360l162 -73q4 17 -4 32.5t-24 22.5q-29 14 -74 33q-24 11 -46 -3l-4 -2l-4 -4q-2 -1 -3.5 -3t-2.5 -3zM370 273l-1 1q-25 0 -42 18t-17 42
q0 6 1.5 11.5t4 11t5.5 10t7 8.5t9 7.5t10 5.5t11 3t12 1h1q24 0 42 -18q17 -18 16 -42q0 -24 -17.5 -41.5t-41.5 -17.5zM370 371q-10 0 -18.5 -5t-14 -13.5t-5.5 -18.5q0 -8 3 -15t8 -12t12 -8.5t14 -3.5h1q24 0 34 24l4 14q0 15 -11 26t-27 12zM717 366l-68 30l-4 3l-5 5
l3 9q1 2 2 3l72 135q4 8 10 11.5t13 3.5h3h3q16 -3 27 -15q4 -5 5 -11.5t-1 -12.5q-12 -32 -35 -96v-1l-1 -1v-1v-1l-1 -1v-1v-1l-1 -1v-1v-1l-1 -1v-1l-15 -41l-1 -2zM667 412l39 -18l11 32q25 68 39 108v3q-5 6 -13 7h-3q-2 0 -3 -3zM292 410q-16 0 -28 11.5t-12 28.5
q0 16 12 27.5t28 11.5q3 0 6.5 -0.5t6.5 -1t5.5 -2t5 -3.5t4.5 -4q12 -12 12 -29q0 -8 -3 -15t-8.5 -12.5t-13 -8.5t-15.5 -3zM292 468q-7 0 -12.5 -5.5t-5.5 -12.5q0 -4 1.5 -7.5t4 -6t5.5 -4t7 -1.5v-11v11q5 0 9 2.5t6.5 7t2.5 8.5q0 8 -5 13q-3 3 -6 4.5t-7 1.5z
M379 410q-12 0 -21 8.5t-9 21.5q0 6 2.5 11.5t6.5 9.5t9.5 6.5t12.5 2.5q12 0 21 -9t9 -22q0 -8 -4 -14.5t-11 -10.5t-15 -4h-1zM380 448q-9 0 -9 -8.5t8 -8.5v-11l1 11q8 0 8 9q0 3 -2.5 5.5t-5.5 2.5z" />
    <glyph glyph-name="uniE61B" unicode="&#xe61b;" 
d="M515 800q-81 0 -158 -25.5t-138.5 -72t-108 -108t-71.5 -138t-25 -158.5q0 -102 39.5 -194.5t106.5 -160t160 -107t195 -39.5t195 39.5t160 107t107 160t40 194.5q0 69 -18 134t-50.5 120t-79 101t-101.5 78.5t-120 50.5t-133 18zM515 -179q-97 0 -185.5 38t-152 102
t-101.5 152t-38 185t38 185.5t101.5 152.5t152 101.5t185.5 37.5q78 0 151 -24t131.5 -68t102.5 -102.5t68 -131.5t24 -150.5t-24 -150.5t-68 -131.5t-102.5 -103t-131.5 -68.5t-151 -24zM533 303l205 206q10 10 24 13.5t27.5 0t23.5 -13.5l19 -19q10 -10 13.5 -23.5
t0 -27.5t-13.5 -24l-206 -206l-150 -54zM521 199l91 34l5 5l-56 56l-6 -5l-34 -90v0zM579 313l56 -57l141 141l-57 56l-140 -140v0zM813 472l-18 18q-5 6 -12 7.5t-14 0t-12 -7.5l-19 -19l56 -56l19 19q8 8 8 19t-8 19v0zM556 555v-97q0 -5 2 -10t5.5 -8.5t8.5 -5.5t10 -2
h41l-26 -27h-15q-22 0 -37.5 15.5t-15.5 37.5v119h-238q-11 0 -19 -7.5t-8 -18.5v-504q0 -11 8 -18.5t19 -7.5h371q11 0 18.5 7.5t7.5 18.5v187l25 27v-214q0 -22 -14.5 -37.5t-36.5 -15.5h-371q-9 0 -16.5 3t-14 7.5t-11 11t-6.5 15t-2 16.5v504q0 22 14 36.5t36 14.5h199
h7h13h37l120 -127l-19 -18l-92 98v0zM299 98h356v-31h-356v31zM299 226h178v-31h-178v31zM299 345h178v-31h-178v31zM299 467h178v-31h-178v31zM299 467z" />
    <glyph glyph-name="uniE61C" unicode="&#xe61c;" 
d="M510 802q-102 0 -195 -40t-160 -107t-106.5 -160t-39.5 -195t39.5 -195t106.5 -160t160 -107t195 -40t195 40t160 107t107 160t40 195t-40 195t-107 160t-160 107t-195 40zM510 -177q-97 0 -185.5 37.5t-152 101.5t-101.5 152.5t-38 185.5q0 78 24 150.5t68 131.5
t103 103t131.5 68t150.5 24t150.5 -24t131.5 -68t103 -103t68 -131.5t24 -150.5q0 -65 -17 -127t-48 -114t-75 -96t-96 -75t-114 -48t-127 -17zM703 552h-385q-39 -8 -47 -46v-412q9 -40 50 -46h377q45 6 51 50v405q-6 40 -46 49zM717 84q-5 -5 -12.5 -7.5t-14.5 -2.5
t-19.5 1t-20.5 1h-287q-5 0 -12.5 -0.5t-12 -0.5t-10.5 0.5t-10 1.5t-8 2.5t-6 4.5q-5 5 -7 19t-1.5 27t1 32t0.5 24v217v55v13v13q0 5 0.5 12t2 10.5t4 8t6.5 6.5t10 3t58 1h281q8 0 18.5 1t15 1t10.5 -2t11 -6q2 -2 3.5 -4.5t2.5 -6.5t1.5 -7t0.5 -9v-9v-11v-11v-274
q0 -2 1.5 -32t0 -47.5t-6.5 -23.5zM510 374q30 20 89 61.5t89 60.5q2 -3 3.5 -7t4 -8t3.5 -6q-33 -25 -96.5 -68.5t-91.5 -64.5q-27 19 -190 132q2 2 6 10.5t7 11.5q16 -11 79 -54.5t97 -67.5zM509 267q5 3 9 7l10 10l9 9q1 2 3 4t3.5 4t4 4.5t4.5 5t4.5 4t4.5 3t4 1.5t4 -1
l4 -2q2 -1 4 -3t3 -4.5t1 -4.5q0 -5 -5.5 -11.5t-12 -11.5t-13 -10.5t-8.5 -9.5q4 -1 17.5 -0.5t21 -1t8.5 -8.5q2 -8 -2 -12t-11.5 -4.5t-17 -0.5t-19 0.5t-16.5 -0.5v-39q12 -3 27.5 -1t28 -1t10.5 -15q-1 -6 -8.5 -9t-17.5 -2t-21 1h-18q-2 -10 -0.5 -21.5t-0.5 -21
t-11 -10.5q-6 -1 -9.5 2t-4.5 8.5t-1 12.5t0.5 14.5t-0.5 14.5q-12 3 -26.5 1t-27 0.5t-13 12.5t10.5 12.5t29.5 1t25.5 -0.5q2 2 1.5 19t-0.5 20q-11 3 -25.5 1t-27.5 0t-13 12q-1 4 0.5 7t4 4.5t6 2.5t8.5 1h9q4 0 9.5 -0.5t9.5 0.5q-4 5 -19 20q-2 1 -7.5 6t-8.5 8.5
t-3 7.5q0 6 5 11t10 5q3 0 7.5 -3t7.5 -6.5t7 -8.5t6 -8q4 -3 9 -9l10 -9q4 -4 7 -8zM510 267z" />
    <glyph glyph-name="uniE61D" unicode="&#xe61d;" 
d="M515 798q-102 0 -195 -39.5t-160 -106.5t-106.5 -160t-39.5 -195t39.5 -195t106.5 -160t160 -107t195 -40t195 40t160 107t107 160t40 195t-40 195t-107 160t-160 106.5t-195 39.5zM515 -180q-97 0 -185.5 37.5t-152 101.5t-101.5 152.5t-38 185.5t38 185t101.5 152
t152 102t185.5 38q78 0 151 -24t131.5 -68.5t102.5 -103t68 -131.5t24 -150q0 -97 -37.5 -185.5t-101.5 -152.5t-152.5 -101.5t-185.5 -37.5zM515 297zM657 488q33 43 30 81q-1 17 -16.5 33t-32.5 18q-32 4 -81 -21q-9 -5 -14.5 -7.5t-13.5 -4.5t-14 -2h-1q-13 0 -42 14
q-39 20 -62 20q-5 0 -9.5 -0.5t-8.5 -1.5q-19 -4 -33.5 -19t-15.5 -31q-2 -20 8 -42t22 -37q-28 -13 -51.5 -31.5t-42 -42t-31 -51t-19 -58.5t-6.5 -65q0 -70 40.5 -132t108 -98.5t144 -36.5t144 36.5t107.5 98.5t40 132q0 34 -6.5 65.5t-19 58.5t-30.5 50.5t-42 42
t-52 31.5zM515 -3q-64 0 -125 30t-102 87t-41 126q0 80 38.5 140.5t105.5 88.5q4 1 6 4t2 7v11q0 2 -1 4.5t-3 4.5q-7 6 -18 27.5t-10 37.5q1 5 5 11t11 11t14 6q3 1 6 1.5t7 0.5q8 0 18 -3t16 -6t17 -8q34 -18 53 -18h2q8 0 18 3t16.5 6t17.5 9q43 21 67 18q8 -1 17.5 -11
t10.5 -18q1 -17 -10 -39t-18 -29q-4 -3 -4 -8v-11q0 -2 1 -4.5t3 -4t4 -2.5q68 -28 106 -88.5t38 -140.5q0 -107 -92 -180q-80 -63 -176 -63zM606 191h-78v39h78q4 0 7 1.5t4.5 4.5t1.5 6.5t-1.5 6.5t-4.5 5t-7 2h-68l75 65l1 1q10 10 0 19.5t-19 -0.5l-80 -69l-77 66
q-4 4 -9.5 4t-9.5 -4q-9 -9 0 -18q1 -1 2 -1l73 -63h-70q-5 0 -9 -4t-4 -9t4 -9t9 -4h78v-39h-78q-5 0 -9 -4t-4 -9q2 -11 13 -13h78v-65q0 -5 4 -9t9 -4q3 0 5.5 1t4 3t2.5 4.5t1 4.5v65h78q6 0 9.5 4t3.5 9t-3.5 9t-9.5 4zM448 410q6 -11 17 -11h13q6 -38 37 -39
q17 0 24 11.5t9 27.5h19q5 0 9.5 3t6.5 8q2 6 1.5 11.5t-3.5 9.5l-41 57q-9 15 -26 15v0q-8 0 -14.5 -4t-11.5 -11l-40 -59l-2 -6q-1 -3 -0.5 -6.5t2.5 -6.5zM505 478q4 6 9 6q3 0 5.5 -1.5t4.5 -5.5l41 -57v-1v0h-27q-8 -2 -9 -10q-2 -29 -15 -29q-15 0 -17 29q0 4 -3 7
t-7 3l-21 1zM466 445z" />
    <glyph glyph-name="uniE61E" unicode="&#xe61e;" horiz-adv-x="1244" 
d="M509 793q-102 0 -195 -39.5t-160 -107t-107 -160t-40 -194.5t40 -195t107 -160.5t160 -107t195 -39.5t195 39.5t160 107t106.5 160.5t39.5 195t-39.5 194.5t-106.5 160t-160 107t-195 39.5zM509 -186q-97 0 -185.5 38t-152.5 102t-101.5 152t-37.5 185.5t37.5 185.5
t101.5 152t152.5 102t185.5 38t185.5 -38t152 -102t101.5 -152t38 -185.5t-38 -185.5t-101.5 -152t-152 -102t-185.5 -38zM902 8l-331 203q31 48 76 120q9 15 0.5 31t-27.5 16h-109v53h216q3 0 6.5 1t5.5 3.5t3.5 5.5t1.5 6q0 7 -5 12t-12 5h-216v87q0 7 -5 12t-11.5 5
t-11.5 -5t-5 -12v-87h-215q-7 0 -12 -5t-5 -12q0 -3 1.5 -6t3.5 -5.5t5.5 -3.5t6.5 -1h215v-53h-165q-3 0 -6.5 -1.5t-5.5 -3.5t-3.5 -5t-1.5 -7q0 -7 5 -12t12 -5h303q-43 -67 -75 -118q-110 55 -194 46q-13 -1 -25.5 -4t-24 -8t-21.5 -11q-14 -9 -25 -20.5t-18 -25.5
q-21 -38 -12 -78q4 -14 10.5 -26t16 -21.5t21.5 -15.5q84 -46 166 -4q48 24 80 67q6 7 38 57l338 -203q1 -1 3 1.5t3 2.5l3 3q4 2 5 2q2 1 2.5 4.5t-1 8t-4.5 7.5zM489 147v-1l-1 -1q-27 -36 -68 -57q-67 -34 -135 3q-25 14 -31 41.5t8 54.5q25 45 89 52q9 1 18 1
q67 0 154 -42q-3 -6 -6.5 -11t-6.5 -9l-4 -8q-3 -4 -5.5 -7t-4 -6t-3 -5t-2.5 -3z" />
    <glyph glyph-name="uniE61F" unicode="&#xe61f;" horiz-adv-x="1244" 
d="M511 798q-185 0 -326 -120q-134 -116 -167 -289q-8 -46 -8 -92q0 -102 39.5 -195t107 -160t160 -107t194.5 -40t195 40t160.5 107t107 160t39.5 195t-39.5 195t-107 160t-160.5 106.5t-195 39.5zM511 -180q-97 0 -185 37.5t-152 101.5t-102 152.5t-38 185.5t38 185
t102 152t152 102t185 38q78 0 151 -24t131.5 -68.5t102.5 -103t68.5 -131.5t24.5 -150q0 -198 -140 -337.5t-338 -139.5zM1243 129zM752 517h-481q-9 0 -17 -3t-14.5 -7.5t-11 -11t-7.5 -14.5t-3 -17v-335q0 -21 15.5 -36.5t37.5 -15.5h481q22 0 37.5 15.5t15.5 36.5v335
q0 14 -7 26.5t-19.5 19.5t-26.5 7zM593 310l189 160h1l1 -6v-335q0 -4 -2 -8zM752 496q12 0 21 -8l-4 -2l-258 -217l-62 53h-1l-1 1l-193 163l-4 2q4 3 9.5 5.5t11.5 2.5h481zM239 129v335v4q0 1 1 2v0l185 -156l-186 -186v1zM271 98q-15 0 -25 12q5 0 8 3l187 187l64 -53
l1 -1h1v-1h4v0h4l1 1h1l1 1l59 49l192 -192h1v-1q-8 -5 -18 -5h-481zM271 98z" />
    <glyph glyph-name="uniE620" unicode="&#xe620;" 
d="M515 786q-102 0 -195 -39.5t-160 -106.5t-106.5 -160t-39.5 -195t39.5 -195t106.5 -160t160 -107t195 -40t195 40t160 107t107 160t40 195t-40 195t-107 160t-160 106.5t-195 39.5zM515 -192q-97 0 -185.5 37.5t-152 101.5t-101.5 152.5t-38 185.5t38 185t101.5 152
t152 102t185.5 38t185.5 -38t152.5 -102t101.5 -152t37.5 -185t-37.5 -185.5t-101.5 -152.5t-152.5 -101.5t-185.5 -37.5zM793 350q11 7 14 14t3 19v98q0 20 -14.5 34.5t-34.5 14.5h-491q-20 0 -34.5 -14.5t-14.5 -34.5v-98q0 -13 3 -20t13 -13q49 -23 49 -65
q0 -16 -4.5 -28t-12 -19t-15 -11.5t-16.5 -7.5q-6 -4 -10.5 -10.5t-5.5 -11.5t-1 -10v-98q0 -21 14.5 -35.5t34.5 -14.5h491q20 0 34.5 14.5t14.5 35.5v98q0 13 -3.5 19t-13.5 13q-18 10 -28.5 19t-15.5 20t-5 27q0 22 10.5 36t38.5 29zM722 285q0 -33 19 -56t50 -34v-100
q0 -7 -2.5 -13.5t-7 -11t-11 -7.5t-13.5 -3h-483q-15 0 -25 10.5t-10 24.5v100q32 11 50.5 34t18.5 56q0 22 -9 40t-24 30t-36 20v100q0 14 10 24t25 10h483q14 0 24 -10t10 -24v-100q-20 -8 -35.5 -20t-24.5 -30t-9 -40zM640 308v17h-65l50 117l-16 7l-52 -124h-82l-52 124
l-16 -7l50 -117h-66v-17h116v-53h-116v-17h116v-116h17v116h116v17h-116v53h116z" />
    <glyph glyph-name="uniE621" unicode="&#xe621;" 
d="M509 788q-102 0 -195 -39.5t-160 -106.5t-107 -160t-40 -195q0 -82 25.5 -158.5t72 -138t108 -108t138 -72t158.5 -25.5q102 0 195 40t160 107t106.5 160t39.5 195q0 82 -25 158.5t-71.5 138t-108 108t-138.5 71.5t-158 25zM509 -190q-97 0 -185.5 37.5t-152.5 101.5
t-101.5 152.5t-37.5 185.5t37.5 185.5t101.5 152t152.5 101.5t185.5 38q197 0 337 -140t140 -337q0 -78 -24 -150.5t-68.5 -131.5t-103 -103t-131 -68t-150.5 -24zM577 48q-9 0 -17.5 2t-16.5 6t-15 9.5t-13 12.5q-16 19 -18.5 43.5t9.5 46.5q-51 38 -124 93q-17 -8 -35 -6
l-8 -14q-4 -7 -7.5 -13.5t-7.5 -12.5t-7.5 -12t-6.5 -12q25 -33 6 -70q-8 -16 -23.5 -25t-32.5 -9h-8q-42 6 -54 45q-10 31 9 57q23 32 62 26q20 36 34 60q-8 8 -13 17.5t-7 20t-1 21.5t5 21q9 21 29 33t43 11q22 -2 39.5 -16.5t23.5 -36.5q8 -27 -5 -52q57 -42 124 -92
q10 5 20.5 7t21.5 1q23 40 44.5 77.5t43.5 74.5q-22 18 -29.5 46t1.5 55q6 19 19 33t31 21.5t37 7.5q36 0 63 -24.5t30 -60.5q2 -23 -7.5 -44.5t-28.5 -36t-42 -18.5q-16 -2 -30 1l-7 -12q-53 -92 -80 -138q35 -29 29 -73q-2 -16 -8.5 -28.5t-17.5 -22t-26 -14.5
q-14 -6 -28 -6zM382 283q7 0 13 -5q74 -56 127 -95q6 -5 7.5 -11t-2.5 -13q-10 -16 -8.5 -34.5t13.5 -32.5q8 -11 20 -16.5t25 -5.5q5 0 10 1t10 3q34 13 39 48q2 16 -3.5 30t-19.5 25h-1q-13 9 -5 22q13 22 28.5 49t24.5 44l29 49l8 14q7 11 19 8.5t25 -0.5q28 4 45 26
t15 50q0 9 -3 17.5t-8 15.5t-11.5 13t-14 10t-16.5 6.5t-18 2.5q-22 0 -40.5 -13.5t-26.5 -34.5q-4 -15 -3 -29t8 -27t18 -22q13 -11 5 -25q-22 -37 -44 -75t-46 -79q-6 -11 -17 -11h-2q-17 2 -32 -6q-5 -3 -9 -3q-6 0 -11 4q-69 52 -129 96q-12 9 -4 22q11 19 5 39
q-5 16 -17 26t-28 11t-29.5 -7.5t-20.5 -22.5q-14 -33 12 -57q6 -5 7 -11.5t-3 -12.5q-6 -11 -13 -23t-12.5 -21t-10.5 -19q-3 -5 -7 -7.5t-9 -2.5h-4q-27 5 -43 -17q-12 -17 -6 -37q4 -14 13.5 -21t23.5 -9q12 -2 24 4t18 18q13 25 -5 47q-8 11 -1 23q17 29 38 66q1 2 2 3
l3 3q2 2 4.5 3t6.5 1h4q12 -2 24 4q5 2 9 2z" />
    <glyph glyph-name="uniE622" unicode="&#xe622;" 
d="M512 793q-102 0 -194.5 -40t-160 -107t-107 -160t-39.5 -195q0 -81 25 -158t71.5 -138.5t108.5 -108t138.5 -71.5t157.5 -25q102 0 195 39.5t160 106.5t107 160t40 195t-40 195t-107 160t-160 107t-195 40zM512 -186q-97 0 -185 38t-152 101.5t-102 152t-38 185.5
t38 185.5t102 152.5t152 101.5t185 37.5t185.5 -37.5t152.5 -101.5t101.5 -152.5t37.5 -185.5t-37.5 -185.5t-101.5 -152t-152.5 -101.5t-185.5 -38zM724 342q-3 0 -6 -2t-4.5 -4.5t-1.5 -5.5v-210q0 -10 -7 -16.5t-17 -6.5h-354q-7 0 -12 3t-8.5 8.5t-3.5 11.5v342
q0 10 7 17t17 7h228q5 0 8.5 3.5t3.5 8.5t-3.5 8t-8.5 3h-231q-12 0 -22 -6t-16 -16t-6 -22v-347q0 -19 13 -32t31 -13h360q18 0 31.5 13t13.5 32v212q-1 3 -2.5 5.5t-4 4.5t-5.5 2v0zM504 190l225 225q2 2 4 5t3 6.5t1.5 7t0.5 6.5t-1 7t-2.5 7t-3.5 6t-5 6l-21 21
q-11 12 -26 12.5t-25 -9.5l-225 -225zM670 473q10 10 20 -1l21 -21q4 -4 4.5 -9.5t-3.5 -9.5l-25 -25l-41 42zM669 389l-167 -167l-41 42l167 167zM429 265l-23 -85q-2 -6 2 -10q2 -2 5 -2.5t6 -0.5l84 23l-17 18l-55 -15l15 55zM429 265z" />
    <glyph glyph-name="uniE623" unicode="&#xe623;" 
d="M512 793q-102 0 -194.5 -40t-160 -107t-107 -160t-39.5 -195q0 -81 25 -158t71.5 -138.5t108.5 -108t138.5 -71.5t157.5 -25q102 0 195 39.5t160 106.5t107 160t40 195t-40 195t-107 160t-160 107t-195 40zM512 -186q-97 0 -185 38t-152 101.5t-102 152t-38 185.5
t38 185.5t102 152.5t152 101.5t185 37.5t185.5 -37.5t152.5 -101.5t101.5 -152.5t37.5 -185.5t-37.5 -185.5t-101.5 -152t-152.5 -101.5t-185.5 -38zM712 509h-408q-5 0 -9 -2t-6 -6t-2 -9v-408q0 -3 1 -6.5t3.5 -5.5t5.5 -3.5t7 -1.5h408q7 0 12 5t5 12v408q0 7 -5 12
t-12 5zM705 89h-394v294h394v-294zM705 403h-394v83h35v-27q0 -7 5.5 -12.5t12.5 -5.5q8 0 13 5.5t5 12.5v27h60v-27q0 -7 5.5 -12.5t12.5 -5.5q5 0 9 2.5t6.5 6.5t2.5 9v27h60v-27q0 -5 2.5 -9t6.5 -6.5t9 -2.5q4 0 7 1.5t5.5 4t4 5.5t1.5 7v27h60v-27q0 -7 5.5 -12.5
t12.5 -5.5q3 0 5.5 1t5 2.5t4 4t2.5 5t1 5.5v27h35v-83zM489 335l-4 4q-2 2 -5 3t-5.5 1.5t-5.5 0.5q-12 0 -21 -9q-2 -2 -4 -5.5t-3 -7t-1 -7.5q0 -12 8 -21q9 -8 21 -8q6 0 11 2t9 6.5t6.5 9.5t2.5 11q0 12 -9 20zM475 309q-1 -1 -2.5 -2t-3.5 -1q-4 0 -6 3q-3 2 -3 6
q0 2 1 3.5t2 2.5q2 2 6 2q2 0 3.5 -0.5t2.5 -1.5t1.5 -2.5t0.5 -3.5q0 -4 -2 -6zM489 258q-8 9 -20 9t-21 -9q-2 -2 -4 -5.5t-3 -7t-1 -7.5q0 -12 8 -21l6 -4q3 -2 7 -3t8 -1q6 0 11 2t9 6q9 9 9 20.5t-9 20.5zM475 232q-2 -3 -6 -3t-6 3q-1 1 -2 2.5t-1 3.5l3 6
q1 1 2.5 1.5t3.5 0.5q4 0 6 -2t2 -6t-2 -6zM647 335q-3 3 -6.5 5t-7 3t-7.5 1q-12 0 -20 -9h-1q-4 -4 -6 -9t-2 -11q0 -11 8 -21q4 -4 9.5 -6t11.5 -2q4 0 7.5 1t7 3t6.5 4q3 5 5.5 10t2.5 11q0 12 -8 20zM633 308l-7 -3q-4 0 -7 3q-3 2 -3 7q0 2 1 3.5t2 3.5q1 1 3 2t4 1
q4 0 7 -3t3 -7t-3 -7zM568 335q-4 4 -9.5 6.5t-11.5 2.5q-12 0 -20 -9q-9 -9 -9 -20t9 -21l6 -4q3 -2 6.5 -3t7.5 -1t8 1t7 3t5.5 4.5t4.5 6t3 7t1 7.5q0 12 -8 20zM553 309q-1 -1 -2.5 -2t-3.5 -1q-3 0 -6 3q-2 2 -2 6l2 6q3 2 6 2q2 0 3.5 -0.5t2.5 -1.5l3 -6q0 -4 -3 -6z
M489 181q-8 9 -20 9t-21 -9q-2 -2 -3.5 -4t-2.5 -5t-1.5 -5.5t-0.5 -5.5q0 -12 8 -21q4 -4 9.5 -6t11.5 -2q2 0 4.5 0.5t4.5 1t4 1.5t4 2.5t3 2.5q9 9 9 21q0 11 -9 20zM475 155q-2 -3 -6 -3t-6 3q-3 2 -3 6l3 6q2 2 6 2t6 -2t2 -6t-2 -6zM568 181q-4 4 -9.5 6.5t-11.5 2.5
q-11 0 -20 -9q-3 -2 -5 -5l-2 -8q-2 -3 -2 -7q0 -12 9 -21q4 -4 9 -6t11 -2q13 0 21 8q8 9 8 21t-8 20zM553 155q-2 -3 -6 -3q-3 0 -6 3q-2 2 -2 6q0 1 0.5 3t1.5 3q3 2 6 2q4 0 6 -2q3 -3 3 -6q0 -4 -3 -6zM411 258q-9 9 -21 9t-20 -9q-4 -4 -6.5 -9t-2.5 -11q0 -12 9 -21
q4 -4 9 -6t11 -2t11.5 2t9.5 6q8 9 8 21t-8 20zM396 232q-2 -3 -6 -3q-3 0 -6 3q-1 1 -1.5 2.5t-0.5 3.5t0.5 3.5t1.5 2.5l6 2q4 0 6 -2q3 -2 3 -6t-3 -6zM411 181q-9 9 -21 9q-11 0 -20 -9q-4 -4 -6.5 -9t-2.5 -11q0 -12 9 -21q4 -4 9 -6t11 -2t11.5 2t9.5 6q8 9 8 21
t-8 20zM396 155q-2 -3 -6 -3q-3 0 -6 3q-2 2 -2 6q0 1 0.5 3t1.5 3q3 2 6 2q4 0 6 -2q3 -3 3 -6q0 -4 -3 -6zM568 258l-4 4l-6 2q-2 2 -5 2.5t-6 0.5q-12 0 -20 -9q-9 -9 -9 -20.5t9 -20.5q4 -4 9 -6t11 -2q13 0 21 8q8 9 8 21t-8 20zM553 232q-2 -3 -6 -3q-3 0 -6 3
q-1 1 -1.5 2.5t-0.5 3.5l2 6q1 1 3 1.5t3 0.5q4 0 6 -2q3 -2 3 -6t-3 -6zM646.5 258.5q-8.5 8.5 -20.5 8.5t-20 -9h-1q-4 -4 -6 -9t-2 -11q0 -12 8 -21h1q3 -4 8.5 -6t11.5 -2q12 0 20.5 8.5t8.5 20.5t-8.5 20.5zM631.5 231.5q-2.5 -2.5 -6 -2.5t-5.5 3q-1 1 -1.5 2.5
t-0.5 3.5t0.5 3.5t1.5 2.5t2.5 1.5t3.5 0.5l6 -2q2 -2 2 -6t-2.5 -6.5z" />
    <glyph glyph-name="uniE624" unicode="&#xe624;" 
d="M509 790q-102 0 -195 -39.5t-160 -106.5t-107 -160t-40 -195t40 -195t107 -160t160 -107t195 -40t195 40t160 107t106.5 160t39.5 195q0 82 -25 158.5t-71.5 138t-108 108t-138.5 71.5t-158 25zM509 -188q-97 0 -185.5 37.5t-152.5 101.5t-101.5 152.5t-37.5 185.5
t37.5 185.5t101.5 152t152.5 101.5t185.5 38t185.5 -38t152 -101.5t101.5 -152t38 -185.5t-38 -185.5t-101.5 -152.5t-152 -101.5t-185.5 -37.5zM806 480q-8 8 -16 0l-358 -358l-205 205q-8 8 -16 0t0 -16l213 -213q8 -8 16 0l366 366q8 8 0 16z" />
    <glyph glyph-name="uniE625" unicode="&#xe625;" horiz-adv-x="1244" 
d="M603 878q-108 0 -207.5 -42.5t-171 -114t-114 -170.5t-42.5 -208t42.5 -208t114 -170.5t171 -114t208 -42.5t207.5 42.5t171 114t114 170.5t42 208q0 146 -71.5 269t-194.5 194.5t-269 71.5zM603 -166q-103 0 -197.5 40.5t-162.5 108.5t-108.5 162.5t-40.5 198
t40.5 197.5t108.5 162t162.5 108.5t198 40.5t197.5 -40.5t162.5 -108.5t108.5 -162t40 -198q0 -83 -25.5 -160.5t-72.5 -140t-109.5 -109.5t-140.5 -73t-161 -26zM458 404q0 -3 1 -6.5t2.5 -6t4.5 -4.5l4 -4q3 -2 6 -2.5t6 -0.5q5 0 9.5 2t8 5t5.5 7.5t2 9.5q0 3 -1 6
t-2.5 6t-4 5t-5 3.5t-5.5 2.5t-6.5 1t-6.5 -1t-5.5 -2.5t-5 -3.5t-4 -5t-2.5 -6t-1 -6zM579 404q0 -3 1 -6.5t2.5 -6t3.5 -4.5l6 -4q2 -2 5 -2.5t6 -0.5q10 0 17.5 7t7.5 17q0 3 -1 6t-2.5 6t-4 5t-5 3.5t-5.5 2.5t-7 1q-10 0 -17 -7t-7 -17zM736 621h-266
q-60 0 -102.5 -42.5t-42.5 -102.5v-145q0 -60 42.5 -102.5t102.5 -42.5h56q38 -103 156 -119q24 -3 42 -2q-62 72 -34 121h46q60 0 102.5 42.5t42.5 102.5v145q0 40 -19 73.5t-52.5 52.5t-73.5 19zM857 331q0 -33 -16 -60.5t-44 -44t-61 -16.5h-52q-8 0 -18 -17
q-7 -13 -7 -27q-2 -31 17 -76h-5q-3 0 -13 2t-19.5 5t-22 10.5t-23 17.5t-21 26t-17.5 35l-8 24h-77q-50 0 -85 35.5t-35 85.5v145q0 50 35 85.5t85 35.5h266q50 0 85.5 -35.5t35.5 -85.5v-145zM700 404q0 -3 1 -6.5t2.5 -6t3.5 -4.5t5 -4t6 -2.5t6 -0.5q10 0 17 7t7 17
q0 3 -0.5 6t-2 6t-4 5t-5 3.5t-5.5 2.5t-7 1q-10 0 -17 -7t-7 -17z" />
    <glyph glyph-name="uniE626" unicode="&#xe626;" 
d="M509 786q-82 0 -158.5 -25t-138 -71.5t-108 -108t-72 -138.5t-25.5 -158q0 -102 40 -195t107 -160t160 -107t195 -40t195 40t160 107t106.5 160t39.5 195q0 68 -18 133t-50 120t-78.5 101.5t-101.5 78.5t-120 50t-133 18zM509 -192q-97 0 -185.5 37.5t-152.5 101.5
t-101.5 152.5t-37.5 185.5t37.5 185t101.5 152t152.5 102t185.5 38t185.5 -38t152 -102t101.5 -152t38 -185t-38 -185.5t-101.5 -152.5t-152 -101.5t-185.5 -37.5zM508.5 188q-16.5 0 -28 11.5t-11.5 27.5v316q0 16 11.5 28t28 12t28 -12t11.5 -28v-316q0 -16 -11.5 -27.5
t-28 -11.5zM509 561q-5 0 -9 -2.5t-6.5 -6.5t-2.5 -9v-316q0 -7 5 -12.5t13 -5.5q3 0 6.5 1.5t6 4t4 6t1.5 6.5v316q0 4 -1.5 7t-4 5.5t-6 4t-6.5 1.5zM508.5 -13q-16.5 0 -28 11.5t-11.5 28.5v57q0 11 5.5 20t14.5 14t20 5q16 0 27.5 -11.5t11.5 -27.5v-57
q0 -17 -11.5 -28.5t-28 -11.5zM508.5 102q-7.5 0 -12.5 -5.5t-5 -12.5v-58q0 -7 5 -12t12.5 -5t13 5t5.5 12v58q0 7 -5.5 12.5t-13 5.5z" />
    <glyph glyph-name="uniE627" unicode="&#xe627;" 
d="M502 793q-102 0 -195 -40t-160.5 -107t-107 -160t-39.5 -195t39.5 -195t107 -160t160.5 -106.5t195 -39.5t194.5 39.5t160 106.5t107 160t39.5 195t-39.5 195t-107 160t-160 107t-194.5 40zM502 -186q-78 0 -151 24t-131.5 68.5t-102.5 103t-68.5 131.5t-24.5 150.5
t24.5 150.5t68.5 131.5t102.5 102.5t131.5 68t151 24q97 0 185 -37.5t152 -101.5t102 -152.5t38 -185.5t-38 -185.5t-102 -152t-152 -101.5t-185 -38zM663 517h-316v38q0 3 2 5.5t6 2.5h300q8 0 8 -8v-38zM663 134h-316v361h316v-361zM663 7q0 -8 -8 -8h-300q-4 0 -6 2t-2 6
v104h316v-104zM655 585h-300q-13 0 -22 -8.5t-9 -21.5v-548q0 -13 9 -22t22 -9h300q13 0 21.5 9t8.5 22v548q0 13 -8.5 21.5t-21.5 8.5zM471 66h68v-22h-68v22zM471 66z" />
    <glyph glyph-name="uniE628" unicode="&#xe628;" 
d="M502 793q-102 0 -195 -40t-160.5 -107t-107 -160t-39.5 -195t39.5 -195t107 -160t160.5 -106.5t195 -39.5t194.5 39.5t160 106.5t107 160t39.5 195t-39.5 195t-107 160t-160 107t-194.5 40zM502 -186q-78 0 -151 24t-131.5 68.5t-102.5 103t-68.5 131.5t-24.5 150.5
t24.5 150.5t68.5 131.5t102.5 102.5t131.5 68t151 24q97 0 185 -37.5t152 -101.5t102 -152.5t38 -185.5t-38 -185.5t-102 -152t-152 -101.5t-185 -38zM758 71v122q0 5 -2 10t-5.5 8.5t-7.5 3.5q-3 0 -5.5 -1t-4.5 -2.5t-3.5 -4t-2.5 -5.5t-1 -6v-126q0 -7 -5.5 -12.5
t-11.5 -5.5h-385q-7 0 -12 6t-5 13v122q0 8 -4.5 13.5t-11.5 5.5q-3 0 -6 -1t-5.5 -4t-3.5 -6.5t-1 -7.5v-124q0 -30 23 -47l4 -2l4 -2q2 -1 4 -1.5t4.5 -1t4.5 -0.5h5h387q12 0 22 6q25 16 25 50v0zM699 413q0 8 -5 13.5t-12 5.5h-329q-7 0 -12 -5.5t-5 -13.5v-4
q0 -2 0.5 -3.5t1.5 -3.5l2 -2q1 -2 2 -3l8 -2h332l9 2q8 6 8 16v0zM352 584q-8 0 -15 -1.5t-13.5 -5t-11.5 -8.5t-8.5 -11.5t-6.5 -14.5l-52 -138v-2v-1q-3 -9 -4.5 -18.5t-1.5 -19.5q0 -33 14.5 -61t38.5 -45q2 -1 3 -2v0h1l1 -1l2 -1q6 -3 11.5 -5t12 -3.5t13 -2.5
t13.5 -1q29 0 55 17q16 10 28 26l3 5l3 -5q12 -16 28 -26q26 -16 55 -16q15 0 28.5 4t26.5 12q15 11 27 26l3 5l4 -5q12 -16 28 -26q6 -4 12.5 -7t13.5 -5t14.5 -3t14.5 -1q15 0 29 3.5t25 10.5q1 0 2 1v1q25 16 39 44.5t14 60.5q0 10 -1 19.5t-4 18.5v1v0q-1 2 -1 4
l-48 135q-6 19 -21.5 30.5t-35.5 11.5h-339zM716 528l48 -134v-2h1q4 -14 4 -28q0 -23 -10.5 -43t-28.5 -31q-8 -5 -17 -7t-20 -3q-42 0 -65 41q-2 6 -5 9q-6 8 -16 8q-11 0 -17 -8q-3 -3 -5 -9q-7 -13 -17 -22t-22 -14t-25 -5q-42 1 -64 41v1q-3 5 -5 7q-1 2 -2 3l-4 2
q-1 1 -3 2t-4 1h-4q-11 0 -16 -7h-1q-2 -3 -5 -9q-22 -41 -64 -41q-21 0 -35 8l-1 1q-19 11 -29.5 31t-10.5 44q0 7 1 14t3 13v2v1l51 135q1 0 1 1q2 10 9 14q2 1 5 2t7 1h346q6 0 9 -3q8 -4 11 -16v0zM716 528z" />
    <glyph glyph-name="uniE629" unicode="&#xe629;" 
d="M502 793q-102 0 -195 -40t-160.5 -107t-107 -160t-39.5 -195t39.5 -195t107 -160t160.5 -106.5t195 -39.5t194.5 39.5t160 106.5t107 160t39.5 195t-39.5 195t-107 160t-160 107t-194.5 40zM502 -186q-78 0 -151 24t-131.5 68.5t-102.5 103t-68.5 131.5t-24.5 150.5
t24.5 150.5t68.5 131.5t102.5 102.5t131.5 68t151 24q97 0 185 -37.5t152 -101.5t102 -152.5t38 -185.5t-38 -185.5t-102 -152t-152 -101.5t-185 -38zM766 362v79l-68 39l-40 69h-79l-68 39l-68 -39h-79l-40 -69l-68 -39v-79l-40 -68l40 -69v-79l68 -39l40 -69h79l68 -39
l68 39h79l40 69l68 39v79l40 69zM750 234l-2 -4v-73l-64 -37l-2 -4l-34 -59h-74l-63 -37l-63 37h-74l-36 63l-5 3l-59 34v73l-2 4l-34 60l36 63v73l64 37l36 63h74l4 3l59 34l63 -37h74l36 -63l5 -3l59 -34v-73l2 -4l34 -59zM511 223l-90 179h-71l10 -24h14l107 -215h60
l107 215h14l10 24h-71zM511 223z" />
    <glyph glyph-name="uniE62A" unicode="&#xe62a;" 
d="M502 793q-102 0 -195 -40t-160.5 -107t-107 -160t-39.5 -195t39.5 -195t107 -160t160.5 -106.5t195 -39.5t194.5 39.5t160 106.5t107 160t39.5 195t-39.5 195t-107 160t-160 107t-194.5 40zM502 -186q-78 0 -151 24t-131.5 68.5t-102.5 103t-68.5 131.5t-24.5 150.5
t24.5 150.5t68.5 131.5t102.5 102.5t131.5 68t151 24q97 0 185 -37.5t152 -101.5t102 -152.5t38 -185.5t-38 -185.5t-102 -152t-152 -101.5t-185 -38zM758 66v-2v2q0 -7 -4.5 -11t-11 -4t-11 4.5t-4.5 10.5q-22 73 -84.5 120t-141.5 47q-78 0 -140.5 -48.5t-84.5 -122.5v4
q0 -4 -1.5 -7t-4 -4.5t-5 -2.5t-5.5 -1q-2 0 -4 0.5t-4 1.5l-2 2q-2 1 -3 3t-1.5 4t-0.5 4l1 2v3v1q19 64 65.5 111.5t109.5 67.5q-49 23 -79 69.5t-30 102.5q0 79 55.5 134.5t134 55.5t134 -55.5t55.5 -134.5q0 -28 -8 -54.5t-22.5 -48.5t-34.5 -40t-44 -29
q63 -20 109.5 -67.5t65.5 -111.5v-4zM661 423q0 43 -21.5 80t-58 58t-80.5 21q-66 0 -112.5 -46.5t-46.5 -112.5t46.5 -113t113 -47t113 47t46.5 113zM756 67q0 -7 -3.5 -11.5t-9.5 -4.5h-483q-6 0 -10 4.5t-4 11.5t4 12t10 5h483q2 0 4 -0.5t4 -2.5t3 -4t1.5 -4.5t0.5 -5.5
z" />
    <glyph glyph-name="uniE62B" unicode="&#xe62b;" 
d="M502 793q-102 0 -195 -40t-160.5 -107t-107 -160t-39.5 -195t39.5 -195t107 -160t160.5 -106.5t195 -39.5t194.5 39.5t160 106.5t107 160t39.5 195t-39.5 195t-107 160t-160 107t-194.5 40zM502 -186q-78 0 -151 24t-131.5 68.5t-102.5 103t-68.5 131.5t-24.5 150.5
t24.5 150.5t68.5 131.5t102.5 102.5t131.5 68t151 24q97 0 185 -37.5t152 -101.5t102 -152.5t38 -185.5t-38 -185.5t-102 -152t-152 -101.5t-185 -38zM206 359v38q0 17 10 32.5t19.5 23.5t27.5 21q8 6 22 12.5t42.5 16.5t74.5 17t101 8h12q8 0 31 -2t45 -4.5t49.5 -9
t49.5 -14.5q20 -8 35 -16t33 -20t28 -28.5t11 -35.5v-39q0 -10 -7 -18.5t-17 -9.5h-90q-11 1 -17.5 9t-6.5 19v24q0 12 -11 22.5t-22 15.5q-1 0 -2 0.5t-4 2.5t-7 3.5t-10.5 4t-13.5 5t-17 4.5t-21 4t-25 3t-29 2q-85 -4 -120 -28q-12 -6 -22.5 -16.5t-10.5 -21.5v-25
q0 -10 -7.5 -19t-18.5 -9h-89q-11 0 -17 8.5t-6 19.5v0zM324 359v26q0 3 1 8.5t10.5 19t26 24.5t53 20.5t86.5 11.5q15 1 37 -1.5t46.5 -9t45.5 -16.5t34.5 -24.5t13.5 -31.5v-27q0 -8 9 -8h80q11 0 11 12v31q0 21 -17 39.5t-38.5 29.5t-51.5 20.5t-46 13t-33 6.5
q-13 2 -35.5 4.5t-81.5 0.5t-106 -15q-21 -5 -40.5 -12t-45.5 -19t-42 -28.5t-16 -35.5v-34v-6q0 -1 1 -3.5t3 -3.5t6 -1l79 1q2 0 3.5 0.5t3 1.5t2.5 2.5t1 3.5v0zM653 339l85 -133v-114q0 -4 -1 -8t-3 -8t-4.5 -7t-5.5 -6t-6.5 -4.5t-8 -2.5t-8.5 -1h-395q-41 -3 -41 37
v114l84 132q2 3 5 8t15 14t27 10h207q9 0 19 -4.5t18 -11.5t13 -15v0zM399 351q-20 1 -35 -24q-11 -19 -80 -127v-107q0 -19 19 -19h395q9 0 14.5 6t5.5 15v105l-81 128q-1 1 -1 2t-2 3t-3.5 4t-4.5 5t-6.5 4.5t-8 3t-8.5 1.5h-204zM501 329q-58 0 -98.5 -23t-40.5 -55
t40.5 -54.5t98 -22.5t98.5 22.5t41 54.5t-41 55t-98 23zM501 192q-49 0 -83.5 17.5t-34.5 41.5q0 12 9.5 23t25 19t37.5 12.5t46 4.5q49 0 83.5 -17t34.5 -42q0 -5 -2 -10.5t-5.5 -10t-8.5 -9t-12 -8.5t-14.5 -7t-16.5 -5.5t-18.5 -4.5t-19.5 -3t-21 -1zM501 192z" />
    <glyph glyph-name="uniE62C" unicode="&#xe62c;" 
d="M502 793q-102 0 -195 -40t-160.5 -107t-107 -160t-39.5 -195t39.5 -195t107 -160t160.5 -106.5t195 -39.5t194.5 39.5t160 106.5t107 160t39.5 195t-39.5 195t-107 160t-160 107t-194.5 40zM502 -186q-78 0 -151 24t-131.5 68.5t-102.5 103t-68.5 131.5t-24.5 150.5
t24.5 150.5t68.5 131.5t102.5 102.5t131.5 68t151 24q97 0 185 -37.5t152 -101.5t102 -152.5t38 -185.5t-38 -185.5t-102 -152t-152 -101.5t-185 -38zM687 22q-16 0 -29 5q-6 2 -16 5.5t-34.5 15.5t-50.5 28.5t-64 47t-75 67.5q-37 36 -66.5 73.5t-46 63.5t-29.5 51.5
t-16.5 35.5t-5.5 17q-9 22 -3 49.5t23 45.5l50 50q9 8 19 12.5t22 4.5q27 0 44 -22l74 -95q5 -7 7.5 -17t1.5 -20.5t-6 -18.5l-37 -60q2 -5 4.5 -11.5t8.5 -17t17 -25t26 -29.5q11 -11 21 -19.5t18.5 -14t15.5 -9.5t12.5 -6.5t9 -4t5.5 -1.5l61 36q12 7 28.5 6.5t27.5 -9.5
l94 -73q21 -17 22.5 -42t-17.5 -43l-50 -50q-25 -26 -66 -26zM365 569q-7 0 -12.5 -2.5t-10.5 -7.5l-50 -50q-12 -12 -16.5 -32.5t1.5 -35.5l1 -2q1 -2 2 -6.5t6.5 -17t13 -27t20.5 -35.5t28.5 -42.5t38 -48.5t48.5 -53q38 -37 75.5 -67t63 -46t49 -27.5t31 -14t11.5 -3.5h2
q9 -4 20 -4q30 0 49 18l50 50q10 11 10 25q-1 4 -2.5 8.5t-4 8t-6.5 6.5l-95 73q-3 3 -8 4t-10 0.5t-9 -2.5l-68 -41h-3q-6 0 -14.5 2t-34 18t-54.5 43q-26 28 -42 53.5t-18.5 34.5t-2.5 14l-1 4l41 68q2 4 3 9t-0.5 10t-3.5 9l-74 94q-10 13 -24 13v0zM365 569z" />
    <glyph glyph-name="uniE62D" unicode="&#xe62d;" 
d="M502 793q-102 0 -195 -40t-160.5 -107t-107 -160t-39.5 -195t39.5 -195t107 -160t160.5 -106.5t195 -39.5t194.5 39.5t160 106.5t107 160t39.5 195t-39.5 195t-107 160t-160 107t-194.5 40zM502 -186q-78 0 -151 24t-131.5 68.5t-102.5 103t-68.5 131.5t-24.5 150.5
t24.5 150.5t68.5 131.5t102.5 102.5t131.5 68t151 24q97 0 185 -37.5t152 -101.5t102 -152.5t38 -185.5t-38 -185.5t-102 -152t-152 -101.5t-185 -38zM488 536l33 17q18 -29 34 -62h177v-37h-373v-168q-4 -156 -61 -235q-11 16 -27 34q50 72 50 210v196h192q-11 22 -25 45v0
zM511 440h37v-63h172v-36h-172v-71h136v-215h-36v33h-208v-33h-37v215h108v170zM648 234h-208v-111h208v111zM648 234z" />
    <glyph glyph-name="uniE62E" unicode="&#xe62e;" 
d="M502 793q-102 0 -195 -40t-160.5 -107t-107 -160t-39.5 -195t39.5 -195t107 -160t160.5 -106.5t195 -39.5t194.5 39.5t160 106.5t107 160t39.5 195t-39.5 195t-107 160t-160 107t-194.5 40zM502 -186q-78 0 -151 24t-131.5 68.5t-102.5 103t-68.5 131.5t-24.5 150.5
t24.5 150.5t68.5 131.5t102.5 102.5t131.5 68t151 24q97 0 185 -37.5t152 -101.5t102 -152.5t38 -185.5t-38 -185.5t-102 -152t-152 -101.5t-185 -38zM516 103q-6 0 -22 12.5t-37.5 33.5t-45 49.5t-43.5 58t-33 61.5t-13 57q0 80 57 136.5t137 56.5q39 0 74.5 -15.5
t61.5 -41t41.5 -61.5t15.5 -75q0 -37 -27 -87t-61 -89.5t-65 -67.5t-40 -28v0zM516 536q-68 0 -115.5 -49.5t-47.5 -117.5q0 -28 23 -69.5t52 -76.5t55 -60.5t33 -25.5q10 0 49.5 41t76 98t36.5 93q0 68 -47.5 117.5t-114.5 49.5v0zM447 376q0 29 20 49t49 20q18 0 34 -9.5
t25.5 -25t9.5 -34.5q0 -28 -20.5 -48t-49 -20t-48.5 20t-20 48v0zM560 376q0 12 -6 22t-16 16t-22 6q-19 0 -32 -13t-13 -31t13 -31t31.5 -13t31.5 13t13 31v0zM383 198q1 -3 7 -12l7 -10h-37l-76 -99h211q-1 -3 -9 -11q-1 -2 -1 -3q0 -2 0.5 -4t1.5 -4t2 -3l17 -10
q10 -10 19 0l17 10q2 2 3 5t1 6q0 1 -1 3q-1 1 -3 4.5t-3 6.5h222l-87 99h-37q1 1 7.5 10t7.5 12h43l138 -153h-261l-37 -22q-8 -8 -19.5 -8t-19.5 8q-32 20 -33 22h-251l124 153h47zM383 198z" />
    <glyph glyph-name="uniE62F" unicode="&#xe62f;" 
d="M502 805q-102 0 -195 -40t-160.5 -107t-107 -160t-39.5 -195t39.5 -195t107 -160t160.5 -106.5t195 -39.5t194.5 39.5t160 106.5t107 160t39.5 195t-39.5 195t-107 160t-160 107t-194.5 40zM502 -174q-98 0 -186 38t-152 101.5t-102 152t-38 185.5q0 65 17.5 127t48 114
t74.5 96.5t96.5 75t114.5 47.5t127 17q77 0 150 -24t131.5 -68t102.5 -102.5t68.5 -131.5t24.5 -151q0 -178 -118 -313q-112 -130 -281 -157q-39 -7 -78 -7zM505 584q-78 0 -134 -68q-58 -69 -60 -170l-2 -9q-1 -1 -2 -3l-2 -4l-2 -2l-2 -4t-4 -7t-4 -8q-8 -16 -13 -33
t-6 -32q-2 -12 -1 -20t4 -11v0v1q3 1 7 4t8 7q3 2 5.5 5.5t4.5 6.5q4 5 10.5 6t11.5 -2q5 -5 5 -7q5 -13 14 -30l5 -9q2 -5 5 -9.5t6 -8.5q1 -2 2 -4.5t0.5 -5t-1 -4.5t-2 -4t-3.5 -4l-5 -2q-8 -3 -14.5 -6.5t-10.5 -8.5l-3 -4q-2 -1 -2.5 -3t-0.5 -4t1.5 -5t4.5 -6
t7.5 -5.5t10.5 -5.5q14 -7 33 -10.5t40 -3.5h8q3 0 6.5 0.5t7 0.5t7 0.5t6.5 1t6.5 1t6.5 1.5l8 2q4 1 7.5 2t7 2.5t6.5 3t6 3.5q8 5 16 0q15 -9 35 -13q2 -1 4 -1.5t4.5 -0.5t4.5 -0.5t4.5 -1t4.5 -0.5h4q3 0 5.5 -0.5t4.5 -0.5h6h5q43 0 74 14q6 3 10 5.5t7.5 5.5t5 6
t1.5 5q0 5 -6 11q-5 5 -12 8.5t-15 6.5q-14 5 -9 20l2 3q1 3 3 5.5t3.5 5.5t3 5.5t3.5 5.5t3 5q5 10 13 30q2 6 8 9t12 0h1q6 -3 7 -6q6 -8 9 -11l5 -5q3 -3 5.5 -4.5t4.5 -1.5l1 -1q3 3 3.5 11t-0.5 20q-1 7 -2.5 15t-4 16t-5.5 16.5t-7 16.5l-1 1q-6 11 -7 14q-2 3 -5 8
l-3 5q-2 5 -2 9q-3 100 -60 170q-30 33 -65 51t-73 18v0zM346 537q65 80 158.5 80t158.5 -80q64 -77 67 -186q1 -1 2.5 -3.5t2.5 -4.5l2 -4l8 -15l1 -1q19 -39 22 -74q5 -42 -12 -58q-1 0 -2 -1l-1 -1q-13 -10 -31 -3q-11 4 -20 14q-4 -7 -5 -9t-2.5 -4.5t-2.5 -5.5l-3 -5
q11 -5 20 -14q7 -7 11.5 -16t4.5 -18q0 -31 -42 -51q-11 -5 -24.5 -8.5t-29.5 -5.5t-32 -2q-15 0 -28.5 1.5t-25.5 4.5q-10 2 -19 5t-17 7q-14 -7 -37 -12q-26 -6 -54 -6q-50 0 -86 16q-42 18 -42 51q0 9 4 18t12 16q5 4 9.5 7.5t9.5 6.5q-1 3 -2.5 5t-2.5 4.5t-2 5.5
q-1 1 -2 3t-1.5 3.5t-1.5 2.5q-5 -4 -10 -7.5t-10 -6.5q-6 -2 -11.5 -2.5t-10.5 1t-9 5.5q-1 0 -2 0.5t-1 1.5q-18 16 -13 57q4 36 23 75q6 13 8 16q5 8 7 11q2 52 20.5 103t43.5 83zM276 214zM734 214zM734 214z" />
    <glyph glyph-name="uniE630" unicode="&#xe630;" horiz-adv-x="1025" 
d="M984 499q-13 31 -29.5 59t-36.5 54.5t-44 49.5q-71 71 -163 110q-95 40 -199 40t-199 -40q-92 -39 -163 -110q-18 -18 -33.5 -37t-29.5 -39t-25.5 -42t-21.5 -45q-40 -95 -40 -199t40 -199q39 -92 110 -163t163 -110q95 -40 199 -40q35 0 68.5 4.5t66.5 13.5t64 22
q92 39 163 110q35 35 63 76t47 87q40 95 40 199t-40 199zM512 -186q-79 0 -153.5 24.5t-134 69.5t-104.5 104.5t-69.5 134t-24.5 153.5q0 99 38.5 189t103.5 155t155 103.5t189 38.5t189 -38.5t155 -103.5t104 -155t39 -189q0 -66 -17.5 -129t-49 -116.5t-76.5 -98.5
t-98.5 -76t-116.5 -48.5t-129 -17.5zM288 338q-10 0 -23 2q2 -10 3 -20q16 -1 29 0q18 2 18 26v85q7 4 14.5 7.5t15.5 7.5q-1 5 -1.5 10t-0.5 9q-7 -3 -14 -7t-14 -7v43h31v16h-31v46h-19v-46h-29v-16h29v-52q-5 -3 -10.5 -5.5t-10.5 -4.5l-10 -4l2 -22q14 8 29 15v-74
q0 -9 -8 -9zM379 457h87v-7h17v96h-121v-96h17v7zM379 530h87v-21h-87v21zM379 494h87v-22h-87v22zM505 420v16h-165v-16h76v-74q-25 8 -41 32q2 5 3 10t1.5 10.5t0.5 11.5h-18q-4 -54 -38 -82l16 -12q19 18 29 44q24 -34 73 -35q31 -1 60 -1q2 6 3 10l1 6q1 2 2 3
q-57 -3 -74 -1v35h61v15h-61v28h71zM514 364l7 -18q45 14 87 27q-2 9 -2 18q-19 -5 -36 -11v66h31v17h-31v57h35v17h-88v-17h34v-57h-32v-17h32v-71q-19 -6 -37 -11zM631 528h86v-128h19v146h-124v-150h19v132zM719 341h-12q-14 0 -14 12v62h-16q5 24 5 55v41h-19v-42
q0 -56 -17 -83q-19 -30 -66 -53q1 -2 3 -4t3 -4l4 -4q1 -2 3 -4q47 25 68 58q8 13 13 30v-54q0 -27 29 -27h18q29 0 32 22q2 11 4 32q-12 4 -20 8q-1 -21 -2 -32q-2 -13 -16 -13zM400 137h104v19h-106q0 10 0.5 22t0.5 27h92v19h-91q0 21 1 47h-21v-47h-56q7 15 13 32l-19 6
q-14 -48 -43 -83q10 -7 15 -12q14 18 25 38h64l-2 -49h-108v-19h104q-17 -57 -108 -88q10 -12 15 -19q89 37 108 93q23 -60 105 -89q7 9 15 20q-85 22 -108 83zM697 90q29 39 33 121h23v17h-90q7 18 13 38l-18 6q-12 -48 -37 -94l2 -2l2 -4l2 -2t2 -3t2 -3.5t2 -3.5l14 28
q5 -62 27 -97q-23 -24 -64 -45q7 -7 12 -16q42 22 63 45q21 -25 59 -43q8 13 14 20q-41 13 -61 38zM686 107q-20 35 -25 104h50q-3 -69 -25 -104zM620 106v153h-93v-154h17v137h59v-136h17zM585 111l-8 -7q3 13 4 29t1 36v52h-17v-59q0 -48 -10 -71t-40 -42q7 -9 13 -16
q38 28 47 63q17 -18 34 -40l15 12q-15 19 -39 43z" />
    <glyph glyph-name="uniE631" unicode="&#xe631;" horiz-adv-x="1025" 
d="M984 499q-39 92 -110 163t-163 110q-95 40 -199 40t-199 -40q-92 -39 -163 -110t-110 -163q-40 -95 -40 -199t40 -199q39 -92 110 -163t163 -110q95 -40 199 -40t199 40q92 39 163 110t110 163q40 95 40 199t-40 199zM512 -186q-99 0 -189 38.5t-155 103.5t-103.5 155
t-38.5 189t38.5 189t103.5 155t155 103.5t189 38.5q79 0 153.5 -24.5t134 -69.5t104.5 -104.5t70 -134t25 -153.5t-25 -153.5t-70 -134t-104.5 -104.5t-134 -69.5t-153.5 -24.5zM279 309h101v18h-108v46h95v18h-95v41h-19v-41h-94v-18h94v-46h-108v-18h100q-38 -49 -104 -84
q8 -10 13 -16q62 36 99 85v-101h19v102q35 -51 99 -83q3 5 6.5 9.5t6.5 8.5q-66 26 -105 79zM433 334q-22 -36 -37 -52l4 -18q11 2 21.5 3.5t20 3t17.5 3t15 2.5q0 9 2 18q-21 -3 -54 -8l14 20q7 10 14 21l14 22q7 11 14 23l-18 9q-9 -17 -17 -31q-15 -1 -30 -1q17 26 43 78
l-18 7q-24 -56 -47 -86l5 -17q16 1 37 3zM396 210q42 11 81 19q0 2 0.5 3.5t0.5 3.5v4v4v4q-43 -11 -88 -20zM490 193h19v15h90v-15h19v99h-128v-99zM509 274h90v-49h-90v49zM564 432h-20v-39h-67v-17h67v-38h-59v-18h138v18h-59v38h68v17h-68v39zM825 249v15h-18v-15h-80
q1 7 1 15h-18v-8q0 -4 -1 -7h-66v-15h62q-9 -21 -49 -28q3 -4 5.5 -8t5.5 -8q49 11 57 44h83v-41h18v41h58v15h-58zM652 364q19 15 33 34h21l-9 -7q9 -10 18 -21h-40v-109h17v8h141v-8h17v109h-19l12 10q-8 9 -19 18h56v14h-78q2 3 4 6.5t4 7.5t4 7h-21q-14 -29 -34 -50
q8 -6 15 -12q10 12 20 27h24l-9 -7q12 -10 21 -21h-112l11 9q-4 5 -8.5 9.5t-8.5 9.5h55v14h-71q7 10 12 21h-20q-18 -33 -48 -57q7 -6 12 -12zM833 282h-141v17h141v-17zM833 311h-141v17h141v-17zM833 357v-17h-141v17h141z" />
    <glyph glyph-name="uniE632" unicode="&#xe632;" horiz-adv-x="1025" 
d="M984 499q-19 46 -47 87t-63 76q-17 18 -36.5 33.5t-39.5 29.5t-42 25.5t-45 21.5q-95 40 -199 40q-34 0 -68 -4.5t-67 -13.5t-64 -22q-92 -39 -163 -110t-110 -163q-40 -95 -40 -199t40 -199q39 -92 110 -163t163 -110q95 -40 199 -40q52 0 102 10t97 30q92 39 163 110
q24 23 44 49.5t36.5 54.5t29.5 59q20 47 30 97t10 102q0 104 -40 199zM512 -186q-99 0 -189 38.5t-155 103.5t-103.5 155t-38.5 189t38.5 189t103.5 155t155 103.5t189 38.5t189 -38.5t155 -103.5t104 -155t39 -189t-39 -189t-104 -155t-155 -103.5t-189 -38.5zM354 239
q-4 -15 -25 -15h-120q-22 0 -22 22v71h146v-15h21v114h-197v-18h176v-63h-146v34h-21v-127q0 -39 38 -39h129q34 0 41 28q4 15 8 40q-12 4 -21 8q-2 -25 -7 -40zM396 210q42 11 81 19q0 5 0.5 9.5t0.5 9.5q-21 -6 -43 -10.5t-45 -9.5zM433 334q-22 -36 -37 -52l4 -18
q11 2 21.5 3.5t20 3t17.5 3t15 2.5v6q0 3 0.5 6t1.5 6q-21 -3 -54 -8q9 13 18.5 27t19 28.5t18.5 30.5l-18 9q-5 -9 -9 -16.5t-8 -14.5q-5 0 -10.5 -0.5t-10.5 -0.5h-9q17 26 43 78l-18 7q-24 -56 -47 -86l5 -17q8 1 17.5 1.5t19.5 1.5zM564 432h-20v-39h-67v-17h67v-38h-59
v-18h138v18h-59v38h68v17h-68v39zM490 193h19v15h90v-15h19v99h-128v-99zM509 274h90v-49h-90v49zM652 364q19 15 33 34h21l-9 -7q5 -5 9.5 -10t8.5 -11h-40v-109h17v8h141v-8h17v109h-19l12 10q-8 9 -19 18h56v14h-78q2 2 3 4l2 4q1 2 2 4.5t2.5 4.5t2.5 4h-21
q-7 -14 -15.5 -26.5t-18.5 -23.5q2 -2 4 -3l4 -4q2 -1 3.5 -2t3.5 -3q10 12 20 27h24l-9 -7q6 -5 11 -10t10 -11h-112l11 9q-9 10 -17 19h55v14h-71q3 5 6 10.5t6 10.5h-20q-18 -33 -48 -57q4 -3 7 -6t5 -6zM833 282h-141v17h141v-17zM833 311h-141v17h141v-17zM833 357v-17
h-141v17h141zM825 249v15h-18v-15h-80q0 3 0.5 7t0.5 8h-18l-1 -15h-66v-15h62q-9 -21 -49 -28q3 -4 5.5 -8t5.5 -8q49 11 57 44h83v-41h18v41h58v15h-58z" />
    <glyph glyph-name="uniE633" unicode="&#xe633;" horiz-adv-x="1025" 
d="M984 499q-10 23 -21.5 45t-25.5 42t-29.5 39t-33.5 37q-71 71 -163 110q-95 40 -199 40t-199 -40q-92 -39 -163 -110q-18 -18 -33.5 -37t-29.5 -39t-25.5 -42t-21.5 -45q-40 -95 -40 -199t40 -199q39 -92 110 -163t163 -110q95 -40 199 -40t199 40q92 39 163 110t110 163
q40 95 40 199t-40 199zM512 -186q-79 0 -153.5 24.5t-134 69.5t-104.5 104.5t-69.5 134t-24.5 153.5q0 99 38.5 189t103.5 155t155 103.5t189 38.5t189 -38.5t155 -103.5t104 -155t39 -189q0 -66 -17.5 -129t-49 -116.5t-76.5 -98.5t-98.5 -76t-116.5 -48.5t-129 -17.5z
M265 461q3 1 6 3l6 2q3 2 6.5 3t6.5 2.5t6 3.5v52h-29v16h29v46h19v-46h31v-16h-31v-43q7 3 14 7l14 8q0 -5 0.5 -10t1.5 -10q-15 -7 -30 -15v-85q0 -24 -18 -25q-13 -2 -29 -1q-1 10 -3 20q13 -1 23 -1q8 0 8 9v74q-15 -8 -29 -16zM324 361q34 29 38 82h18q-1 -17 -5 -32
q16 -23 41 -32v74h-76v16h165v-16h-71v-28h61v-15h-61v-35q17 -2 74 1q-1 -1 -6 -18q-29 -1 -60 0q-49 1 -73 35q-10 -25 -29 -44zM362 579h121v-96h-17v7h-87v-7h-17v96zM466 564h-87v-22h87v22zM379 506h87v21h-87v-21zM514 398q9 2 18 4.5t19 5.5v71h-32v17h32v57h-34v17
h88v-17h-35v-57h31v-17h-31v-66q17 6 36 11q0 -9 2 -18q-21 -6 -43 -13l-44 -14zM663 544h19v-41q0 -31 -5 -55h16v-61q0 -13 14 -13h12q14 0 16 13q1 11 2 32q8 -4 20 -8q-2 -21 -4 -32q-3 -22 -32 -22h-18q-29 0 -29 27v54q-5 -17 -13 -30q-21 -33 -68 -58q-7 9 -13 16
q47 23 66 53q17 28 17 83v42zM612 579h124v-146h-19v128h-86v-132h-19v150zM369 84q28 19 50 44q-14 36 -17 116h-92v-37h70q-1 -47 -4 -78q-2 -34 -32 -34q-5 0 -11.5 0.5t-15.5 0.5q-1 9 -4 20q9 -1 16 -1.5t13 -0.5q14 0 16 19q2 23 3 56h-51q-2 -85 -34 -125
q-6 8 -13 16q28 37 28 116v66h110q0 10 -0.5 20t-0.5 22h20q0 -17 1 -42h84v-18h-84q3 -66 12 -98q24 32 39 73l20 -8q-21 -50 -51 -87q5 -9 9.5 -15.5t8.5 -11.5t8.5 -7t8.5 -2q6 0 10 11q3 18 5 37l4 -2l4 -2h4q2 -1 3.5 -2t3.5 -1q-4 -26 -8 -43q-5 -17 -21 -19
q-15 -1 -28 10q-15 11 -26 31q-5 -5 -10 -10.5t-11 -10t-11.5 -9.5t-11.5 -9q-2 2 -3 3.5t-2.5 3t-3 2.5t-3 2.5t-2.5 3.5zM439 292l10 12q20 -11 38 -24l-12 -15q-5 5 -11 9.5t-12.5 9t-12.5 8.5zM514 129q5 2 10.5 3t10.5 2l10 2q5 1 10 3v120h-37v19h97v-19h-41v-116
q11 3 21 5.5t20 5.5q0 -13 1 -20q-14 -3 -29.5 -7t-32 -8.5t-34.5 -9.5zM609 253h38v50h20q0 -29 -1 -50h78q-1 -22 -1.5 -41.5t-1 -37.5t-1 -34.5t-1.5 -30.5q-3 -39 -35 -39q-21 -1 -47 1q0 5 -1 10.5t-2 11.5q25 -3 46 -3q18 0 19 22q4 57 5 122h-58q-1 -19 -2 -30
q-4 -96 -77 -140q-6 8 -15 17q69 38 73 124q1 12 1 29h-37v19z" />
    <glyph glyph-name="uniE634" unicode="&#xe634;" horiz-adv-x="1025" 
d="M984 499q-13 31 -29.5 59t-36.5 54.5t-44 49.5q-71 71 -163 110q-95 40 -199 40t-199 -40q-92 -39 -163 -110q-24 -23 -44 -49.5t-36.5 -54.5t-29.5 -59q-40 -95 -40 -199t40 -199q39 -92 110 -163t163 -110q95 -40 199 -40q35 0 68.5 4.5t66.5 13.5t64 22q92 39 163 110
q35 35 63 76t47 87q40 95 40 199t-40 199zM512 -186q-79 0 -153.5 24.5t-134 69.5t-104.5 104.5t-69.5 134t-24.5 153.5q0 99 38.5 189t103.5 155t155 103.5t189 38.5t189 -38.5t155 -103.5t104 -155t39 -189q0 -66 -17.5 -129t-49 -116.5t-76.5 -98.5t-98.5 -76
t-116.5 -48.5t-129 -17.5zM510 420v16h-164v-16h75v-74q-24 8 -40 32q2 8 3 16l2 16h-18q-4 -54 -39 -82q9 -6 16 -12q20 18 30 44q23 -34 73 -35q31 -1 60 -1q5 17 5 19q-57 -3 -73 -1v35h61v15h-61v28h70zM385 457h86v-7h18v96h-122v-96h18v7zM385 530h86v-21h-86v21z
M385 494h86v-22h-86v22zM270 428l3 -22q14 8 29 15v-74q0 -9 -9 -9t-22 2q1 -10 3 -20q16 -1 28 0q18 2 18 26v85q5 2 10 5l10 4l10 6q0 3 -0.5 6.5t-0.5 6.5t-1 6q-7 -3 -14 -7t-14 -7v43h31v16h-31v46h-18v-46h-30v-16h30v-52q-16 -8 -32 -14zM680 405v-54q0 -27 29 -27
h18q28 0 32 22q2 11 4 32q-12 4 -20 8q-1 -11 -1.5 -19t-1.5 -13q-1 -13 -16 -13h-11q-14 0 -14 12v62h-17q6 24 6 55v41h-19v-42q0 -56 -18 -83q-18 -30 -66 -53q3 -2 5 -4.5t4 -5.5l4 -6q48 25 69 58q8 13 13 30zM637 528h86v-128h19v146h-124v-150h19v132zM520 364l7 -18
q44 14 86 27q-1 9 -1 18q-19 -5 -36 -11v66h31v17h-31v57h34v17h-87v-17h34v-57h-32v-17h32v-71q-19 -6 -37 -11zM280 64q-32 5 -54 30q30 47 37 110v18h-66q7 21 12 45l-20 3q-15 -73 -45 -126q5 -5 8.5 -9.5t5.5 -7.5q2 2 3 4l2 4l2 4l2 4l2 4l2 4l2 4l2 4q10 -39 27 -65
q-21 -28 -54 -51q8 -6 16 -14q30 21 51 49q26 -27 63 -33q37 -7 104 -5q3 11 7 20q-72 -3 -109 4zM214 111q-18 29 -28 75q3 8 6 17h51q-5 -52 -29 -92zM293 269v-199h20v114q34 -24 60 -47l13 17q-14 11 -29.5 22.5t-33.5 23.5l-10 -13v82h-20zM565 93h63v17h-63v32h39v-9
h19v126h-133v-126h18v9h39v-32h-62v-17h62v-35h-76v-17h167v17h-73v35zM565 242h39v-33h-39v33zM547 159h-39v34h39v-34zM547 209h-39v33h39v-33zM565 193h39v-34h-39v34zM479 95q-7 -2 -15 -4.5t-16 -4.5v69h31v17h-31v61h33v17h-84v-17h33v-61h-30v-17h30v-74
q-4 -1 -7.5 -2t-7 -1.5t-7 -1.5t-7.5 -2t-7 -2l6 -20q20 7 40.5 12.5t41.5 11.5q0 2 -0.5 3.5t-1 3.5t-0.5 4t-0.5 4t-0.5 4zM777 219v53h-21v-53h-94v-111h20v13h74v-91h21v91h75v-13h20v111h-95zM756 139h-74v62h74v-62zM852 139h-75v62h75v-62z" />
    <glyph glyph-name="uniE635" unicode="&#xe635;" 
d="M339 263q18 0 36.5 -3t33 -6.5t32.5 -9.5t29.5 -11t30.5 -13t29 -12q-34 -41 -62.5 -68.5t-62.5 -46t-66 -18.5q-24 0 -49.5 4.5t-51 14.5t-41.5 29t-16 45q0 22 15 40.5t38 30t50.5 18t54.5 6.5zM938 651v-702q0 -31 -22 -53t-53 -22h-702q-21 0 -38 10t-27 27t-10 38
v702q0 16 6 29.5t16 23.5t23.5 16t29.5 6h702q21 0 38 -10t27 -27t10 -38zM938 155q-46 10 -282 93q37 63 57 136l3 10l2 10q2 6 3.5 13.5t1.5 10.5h-169v43h213v43h-213v86h-86v-86h-213v-43h213v-43h-170v-42h318q-6 -29 -16 -57.5t-25 -53.5q-9 3 -31.5 9t-58.5 15
t-76.5 15t-70.5 6q-22 0 -47 -6.5t-50 -19.5t-45 -30.5t-32.5 -42.5t-12.5 -53q0 -73 48.5 -112.5t138.5 -39.5q161 0 268 160q44 -19 284 -133q28 -14 48 -23v135z" />
    <glyph glyph-name="uniE636" unicode="&#xe636;" 
d="M433 376q-5 0 -8 -3t-3 -7v-7q0 -4 3 -7t8 -3h43v-30q0 -11 11 -11h6q3 0 5.5 1.5t4 4t1.5 5.5v30h43q3 0 5.5 1t3.5 3.5t1 5.5v7q0 4 -3 7t-7 3h-43v26h43q2 0 4 1t3.5 2.5t2 3.5t0.5 4v6q0 5 -3 8t-7 3h-8l16 28q2 3 1 6q-2 5 -5 7l-6 3q-9 6 -14 -2l-25 -42h-33
l-25 42q-1 3 -5 4t-8 -2l-6 -3q-4 -2 -5 -7q-1 -1 -0.5 -2.5t0.5 -3.5l17 -28h-8q-5 0 -8 -3t-3 -8v-6q0 -2 1 -4t2.5 -3.5t3.5 -2.5t4 -1h43v-26h-43zM642 245q-24 0 -46 -11.5t-36.5 -34t-14.5 -52.5q0 -40 28.5 -68.5t69 -28.5t69 28.5t28.5 68.5q0 20 -8 38t-21 31
t-31 21t-38 8zM642 70q-31 0 -54 22.5t-23 54.5q0 37 24.5 57t52.5 20q21 0 39 -10t28 -28t10 -39t-10 -38.5t-28 -28t-39 -10.5zM306 87v427q0 14 15 14h338q4 0 7.5 -2t5.5 -5t2 -7v-264h22v264q0 10 -5 18t-13.5 13t-18.5 5h-338q-16 0 -26.5 -10.5t-10.5 -25.5v-427
q0 -15 10.5 -25.5t26.5 -10.5h239v21h-239q-2 0 -4 0.5t-3.5 1.5t-3 2.5t-2.5 3t-1.5 3.5t-0.5 4zM649 121l2 81h-21l2 -81h17zM632 111q-4 -3 -4 -8q0 -2 0.5 -3.5t1.5 -3t2 -2.5t2.5 -2t3 -1.5t3.5 -0.5q5 0 8 4q1 1 2 2.5t1.5 3t0.5 3t-0.5 3t-1.5 3t-2 2.5q-8 9 -17 0z
M606 261.5q0 3.5 -1.5 6.5t-4.5 4.5t-6 1.5h-209q-3 0 -5.5 -1.5t-4 -4.5t-1.5 -6.5t1.5 -6.5t4 -4.5t5.5 -1.5h209q3 0 6 1.5t4.5 4.5t1.5 6.5zM374 187.5q0 -5.5 3.5 -9t7.5 -3.5h153v3q3 9 7 17l3 6h-163q-4 0 -7.5 -4t-3.5 -9.5zM0 300q0 -104 40.5 -199t109 -163.5
t163.5 -109t199 -40.5t199 40.5t163.5 109t109 163.5t40.5 199t-40.5 199t-109 163.5t-163.5 109t-199 40.5q-83 0 -161.5 -26t-141.5 -73t-110 -110t-73 -141.5t-26 -161.5zM999 300q0 -79 -24.5 -153.5t-69.5 -134.5t-105 -105t-134.5 -69.5t-153.5 -24.5q-99 0 -189 38.5
t-155.5 104t-104 155.5t-38.5 189t38.5 189t104 155.5t155.5 104t189 38.5t189 -38.5t155.5 -104t104 -155.5t38.5 -189z" />
    <glyph glyph-name="uniE637" unicode="&#xe637;" 
d="M422 476q-1 -39 71 -58v116q-17 -2 -30 -6.5t-21.5 -11.5t-13.5 -17t-6 -23zM525 374v-130q75 5 78 65q2 8 -0.5 16t-8.5 15t-15.5 13t-23 11t-30.5 10zM512 882q-101 0 -193.5 -39.5t-159 -106t-106 -159t-39.5 -193.5t39.5 -193.5t106 -159t159 -106t193.5 -39.5
q81 0 157 25.5t137 71.5t107 107t71.5 137t25.5 157q0 101 -39.5 193.5t-106 159t-159 106t-193.5 39.5zM512 36q-95 0 -175 46.5t-126.5 126.5t-46.5 175t46.5 175t126.5 126.5t175 46.5q32 0 62.5 -5.5t59 -16t54.5 -25.5t48.5 -34.5t42 -42t34.5 -48.5t25.5 -54.5t16 -59
t5.5 -62.5q0 -95 -46.5 -175t-126.5 -126.5t-175 -46.5zM512 686q-125 0 -213.5 -88.5t-88.5 -213.5t88.5 -213.5t213.5 -88.5q82 0 151.5 40.5t110 110t40.5 151.5t-40.5 151.5t-110 110t-151.5 40.5zM644 307q-8 -87 -119 -94v-44h-32v44q-53 3 -84 28.5t-40 74.5l39 13
q11 -78 85 -85v137q-117 26 -110 95q6 83 110 92v36h32v-36q46 -4 74 -27.5t37 -66.5l-41 -12q-9 31 -26.5 49t-43.5 22v-122q126 -27 119 -104z" />
    <glyph glyph-name="uniE638" unicode="&#xe638;" 
d="M512 738q-96 0 -177.5 -47.5t-129 -129t-47.5 -177.5t47.5 -177.5t129 -129t177.5 -47.5t177.5 47.5t129 129t47.5 177.5t-47.5 177.5t-129 129t-177.5 47.5zM727 333h-215q-6 0 -11 2.5t-8 6.5q-6 7 -6 16v1v0v253q0 10 7.5 17.5t17.5 7.5t17.5 -7.5t7.5 -17.5v-228h190
q11 0 18 -7.5t7 -18t-7 -18t-18 -7.5zM512 882q-101 0 -193.5 -39.5t-159 -106t-106 -159t-39.5 -193.5t39.5 -193.5t106 -159t159 -106t193.5 -39.5q81 0 157 25.5t137 71.5t107 107t71.5 137t25.5 157q0 101 -39.5 193.5t-106 159t-159 106t-193.5 39.5zM512 -21
q-110 0 -203 54.5t-147.5 147.5t-54.5 203t54.5 203t147.5 147.5t203 54.5t203 -54.5t147.5 -147.5t54.5 -203q0 -158 -108 -274q-104 -113 -256 -129q-21 -2 -41 -2z" />
    <glyph glyph-name="uniE639" unicode="&#xe639;" 
d="M512 882q-101 0 -193.5 -39.5t-159 -106t-106 -159t-39.5 -193.5t39.5 -193.5t106 -159t159 -106t193.5 -39.5q81 0 157 25.5t137 71.5t107 107t71.5 137t25.5 157q0 101 -39.5 193.5t-106 159t-159 106t-193.5 39.5zM792 493l-296 -296q-4 -4 -7.5 -6.5t-7.5 -4.5t-8 -3
l-8 -2q-4 -1 -9 -1q-10 0 -20.5 4.5t-18.5 12.5l-185 185q-4 4 -7.5 9t-5 10.5t-2.5 11t-1 10.5q1 23 16 37.5t37 15.5q12 1 22.5 -3t19.5 -12l145 -146l258 257q8 8 18.5 12t22.5 4q3 -1 5.5 -1t5 -0.5t4.5 -1.5l4 -2l6 -2q2 -1 4 -3l4 -2l4 -4q15 -15 16 -37
q1 -25 -16 -42z" />
    <glyph glyph-name="uniE63A" unicode="&#xe63a;" 
d="M928 800h-832q-40 0 -68 -28t-28 -68v-832q0 -40 28 -68t68 -28h832q40 0 68 28t28 68v832q0 40 -28 68t-68 28zM960 -128q0 -13 -9.5 -22.5t-22.5 -9.5h-832q-13 0 -22.5 9.5t-9.5 22.5v832q0 13 9.5 22.5t22.5 9.5h832q13 0 22.5 -9.5t9.5 -22.5v-832z" />
    <glyph glyph-name="uniE63B" unicode="&#xe63b;" 
d="M928 800h-832q-40 0 -68 -28t-28 -68v-832q0 -40 28 -68t68 -28h832q40 0 68 28t28 68v832q0 40 -28 68t-68 28zM960 -128q0 -13 -9.5 -22.5t-22.5 -9.5h-832q-13 0 -22.5 9.5t-9.5 22.5v832q0 13 9.5 22.5t22.5 9.5h832q13 0 22.5 -9.5t9.5 -22.5v-832zM722 526
l-333 -334l-83 100q-17 21 -43.5 23.5t-47.5 -14.5t-23.5 -43.5t14.5 -47.5l128 -155v0h1l1 -3q1 0 2 -1v-1h1l1 -1l1 -1l2 -2h1q1 -1 1 -2q1 0 2 -1l1 -1h1l1 -1h1q1 -1 2 -1q0 -1 1 -1t2 -1l1 -1q1 0 3 -1h1l2 -1h1q1 -1 2 -1h1q2 -1 3 -1h1q1 0 2 -1h1h2h1h3h1h3v-1
q1 0 1.5 0.5t1.5 0.5h1h2h1h2h1q1 0 2 1h1h2h1q1 1 2 1l6 2h1v1h2l1 1h2v1h1l1 1q1 1 1.5 1t1.5 1l1 1h1l2 1v1l2 1h1v1l2 1v1l1 1h1v1l384 383q19 19 19 46t-19 46q-13 12 -29.5 16.5t-33 0t-29.5 -16.5z" />
    <glyph glyph-name="uniE63C" unicode="&#xe63c;" 
d="M711 521q12 0 22.5 6t17 16t6.5 22v200q0 19 -13.5 31.5t-32 12.5t-31.5 -12.5t-13 -31.5v-200q0 -18 13 -31t31 -13zM623 699h-222v-67h222v67zM884 699h-83v-67h86q19 0 33 -13.5t14 -32.5v-154h-844v154q0 9 4 17.5t10.5 15t15 10t17.5 3.5h87v67h-83q-32 0 -58.5 -16
t-42.5 -43t-16 -58v-677q0 -48 33.5 -82.5t81.5 -34.5h745q48 0 82.5 34.5t34.5 82.5v677q0 16 -4.5 31t-12 27.5t-18 23.5t-23.5 18.5t-28 12t-31 4.5zM934 -98q0 -19 -14 -33t-33 -14h-750q-19 0 -33 14t-14 33v464h844v-464zM267 166q18 0 33.5 9t24.5 24.5t9 33.5
q0 13 -5.5 25.5t-14.5 21.5t-21 14.5t-26 5.5q-28 0 -47.5 -20t-19.5 -47q0 -11 3.5 -21.5t9.5 -18.5t14.5 -14t18.5 -9.5t21 -3.5zM511.5 166q27.5 0 47 19.5t19.5 47.5q0 13 -5 25.5t-14 21.5t-21.5 14.5t-25.5 5.5q-28 0 -47.5 -20t-19.5 -47.5t19.5 -47t47 -19.5z
M266 -79q28 0 47.5 19.5t19.5 47.5t-19.5 47.5t-47.5 19.5t-47.5 -19.5t-19.5 -47.5q0 -41 36 -59q15 -7 31 -8zM511.5 -79q27.5 0 47 19.5t19.5 47.5q0 14 -5 26.5t-14 21t-21.5 14t-25.5 5.5q-28 0 -47.5 -19.5t-19.5 -47.5t19.5 -47.5t47 -19.5zM755.5 166
q27.5 0 47 19.5t19.5 47t-19.5 47.5t-47 20t-47 -20t-19.5 -47.5t19.5 -47t47 -19.5zM312 521q12 0 22.5 6t16.5 16t6 22v200q0 19 -13.5 31.5t-31.5 12.5q-9 0 -17.5 -3t-14 -9t-9 -14.5t-3.5 -17.5v-200q0 -18 12.5 -31t31.5 -13z" />
    <glyph glyph-name="uniE63D" unicode="&#xe63d;" 
d="M512 886q-68 0 -133 -18.5t-120 -50.5t-101.5 -78.5t-78.5 -101.5t-50.5 -120t-18.5 -133q0 -102 40 -195t107 -160t160 -107t195 -40t195 40t160 107t107 160t40 195q0 59 -13.5 115t-38 105.5t-59 93t-78 78t-93 59t-105.5 38t-115 13.5zM512 -93q-97 0 -185.5 37.5
t-152.5 101.5t-101.5 152.5t-37.5 185.5t37.5 185.5t101.5 152t152.5 101.5t185.5 38q65 0 127 -17t114 -48t96 -75t75 -96t48 -114t17 -127q0 -97 -37.5 -185.5t-101.5 -152.5t-152.5 -101.5t-185.5 -37.5zM512 384zM734 486q-38 61 -102 94q-5 3 -10.5 3t-11 -3.5
t-7.5 -8.5q-4 -8 -1.5 -17t10.5 -13q53 -27 85 -78q32 -52 32 -114q0 -90 -64 -154q-30 -30 -70 -46.5t-83 -16.5q-90 0 -153.5 63.5t-63.5 153.5q0 62 32 114q11 16 24 30.5t28.5 26.5t32.5 21q8 4 11 13t-2 17q-2 5 -7.5 8.5t-11 3.5t-10.5 -3q-32 -16 -57.5 -40
t-44.5 -54q-39 -63 -39 -137q0 -27 5 -52.5t16 -49.5q19 -47 55 -83q18 -18 39 -32t44 -24q49 -20 102 -20t102 20q11 5 22 11t21.5 13t20.5 15t19 17q36 36 55 83q21 49 21 102q0 36 -10 71t-29 66zM512 401q12 0 20.5 8.5t8.5 20.5v221q0 12 -8.5 20.5t-20.5 8.5
t-20.5 -8.5t-8.5 -20.5v-221q0 -8 3.5 -14.5t10.5 -10.5t15 -4z" />
    <glyph glyph-name="uniE63E" unicode="&#xe63e;" 
d="M512 -127q-104 0 -199 40q-92 39 -162.5 109.5t-109.5 162.5q-40 95 -40 199t40 199q39 91 109.5 162t162.5 110q95 40 199 40t199 -40q46 -20 86.5 -47.5t76.5 -62.5q70 -71 109 -162q20 -48 30 -98t10 -101q0 -21 -1.5 -41.5t-4.5 -40.5t-8 -40t-11.5 -39t-14.5 -38
q-39 -92 -109 -163q-9 -9 -18 -17l-20 -16q-9 -8 -18.5 -15.5t-19.5 -13.5l-22 -14q-10 -6 -20.5 -12t-22 -11t-22.5 -10q-95 -40 -199 -40zM512 869q-99 0 -188.5 -38.5t-155 -103.5t-104 -155t-38.5 -188.5t38.5 -188.5t104 -155t155 -103.5t188.5 -38.5t189 38.5
t155 103.5t103.5 155t38.5 189q0 66 -17.5 128.5t-49 116t-76.5 98.5t-98 76t-116 48.5t-129 17.5zM265 437q15 2 29.5 5.5t29 6.5t29.5 7q-1 -3 -1 -5v-5v-4v-5q-39 -8 -82 -19zM297 494q32 5 53 8l-2 -18q-27 -4 -74 -12l-4 18q16 16 38 52q-21 -2 -38 -3l-4 17
q22 29 46 86l19 -7q-27 -52 -43 -78q14 0 29 1q4 7 8.5 14.5t8.5 16.5l18 -9q-27 -47 -55 -86zM359 546h60v38h-68v17h68v39h19v-39h68v-17h-68v-38h60v-18h-139v18zM364 500h129v-99h-19v15h-91v-15h-19v99zM474 483h-91v-50h91v50zM549 578h40q-4 6 -8.5 11t-9.5 10l9 6
h-21q-14 -18 -32 -33q-6 6 -13 12q30 24 48 57h20q-2 -4 -4 -7l-4 -8q-2 -3 -4 -7h70v-14h-54q8 -8 17 -18l-11 -9h112q-9 11 -21 21l9 6h-25q-9 -14 -20 -26q-3 3 -6.5 6t-7.5 6q20 21 34 50h21q-3 -6 -6 -11t-6 -11h77v-14h-55q2 -1 4 -3t4 -3.5t4 -3.5t3.5 -4t3.5 -3
l-12 -10h19v-109h-17v8h-141v-8h-17v109zM517 457h66q1 7 1 15h18v-4q0 -2 -0.5 -4t-0.5 -4v-3h80v15h18v-15h57v-15h-57v-41h-18v41h-83q-8 -33 -57 -43q-2 2 -3.5 4.5t-3.5 5.5l-4 6q40 6 49 27h-62v15zM707 565h-141v-17h141v17zM566 519h141v17h-141v-17zM566 490h141
v17h-141v-17zM266 133q90 31 108 88h-105v19h108q2 16 3 49h-65q-11 -20 -24 -38q-6 5 -16 12q29 35 43 82l19 -6q-5 -16 -12 -32h55v48h21v-13q0 -6 -0.5 -12t-0.5 -12v-11h91v-18h-91q-1 -30 -2 -49h106v-19h-104q23 -61 108 -83q-8 -10 -15 -20q-81 29 -105 89
q-19 -56 -107 -92l-2 2q-1 1 -2 2.5t-2.5 3t-2.5 3t-3 3.5t-3 4zM565 305h17v-52q0 -40 -5 -65l8 7q23 -24 39 -43l-15 -12q-6 7 -11.5 14t-11 13.5t-11.5 12.5q-9 -35 -47 -63q-6 8 -13 16q30 19 40 42t10 71v59zM527 343h93v-153h-18v135h-58v-136h-17v154zM621 262
q25 46 37 93l18 -5q-6 -20 -13 -38h90v-17h-24q-4 -82 -32 -121q20 -25 61 -38q-6 -7 -14 -19q-38 17 -59 42q-22 -22 -63 -45q-2 4 -5.5 8.5t-6.5 7.5q41 21 63 45q-21 35 -26 97q-7 -15 -14 -28q-7 11 -12 18zM685 191q22 35 25 104h-50q5 -69 25 -104z" />
    <glyph glyph-name="uniE63F" unicode="&#xe63f;" horiz-adv-x="1366" 
d="M599 99q14 -1 27.5 3t24.5 13l5 2l-158 158l-2 -5q-18 -22 -16 -52l-56 -175zM1172 739l-52 52q-9 8 -19.5 13.5t-21.5 7t-22 0t-21.5 -7t-19.5 -13.5l-50 -50l155 -156l51 51q21 21 21 51t-21 52zM1068 532l-155 155l-360 -360l155 -155zM1050 -139h-807v807h514v70
h-512q-19 0 -36 -9.5t-27 -26.5t-10 -37v-804q0 -30 21.5 -51.5t51.5 -21.5h805q30 0 51.5 21.5t21.5 51.5v512h-73v-512zM1050 -139z" />
    <glyph glyph-name="uniE640" unicode="&#xe640;" 
d="M646 150h-269q-11 0 -21 4.5t-17.5 12t-12 17.5t-4.5 22v8v12v15v7q1 33 16 52q14 19 32 31.5t40 20t51 11.5q-6 7 -16 16q-21 21 -33 57t-12 68q0 47 33 80t79 33t79 -33t33 -80q0 -14 -3 -31t-8.5 -34t-14.5 -32.5t-19 -26.5q-1 0 -1 -1l-1 -1q-9 -9 -14 -15
q82 -9 123 -63q15 -19 16 -50v-44q0 -23 -16.5 -39.5t-39.5 -16.5zM512 575q-29 0 -50 -20.5t-21 -50.5q0 -24 9.5 -52.5t23.5 -43.5q30 -28 30 -44t-10.5 -28t-26.5 -14q-35 -4 -57.5 -15t-39.5 -32q-6 -9 -7 -27v-42q0 -6 4.5 -10t9.5 -4h269q4 0 7.5 1.5t5 5t1.5 7.5v44
q0 16 -7 25q-16 21 -39 32.5t-59 14.5q-8 2 -14.5 6t-11.5 9.5t-7.5 12t-2.5 14.5q0 7 4 14t13 17l2 2l2 2l2 3q2 1 3 2.5t3 2.5l1 2q15 15 24 43.5t9 51.5q0 19 -9.5 35.5t-25.5 26t-35 9.5zM512 575zM512 -42q-115 0 -213 57t-155 155t-57 213.5t57 213.5t155 155t213 57
q86 0 165 -34t136 -91t90.5 -135.5t33.5 -165.5q0 -115 -57 -213t-155 -155t-213 -57zM512 768q-78 0 -149 -30.5t-122.5 -82t-82 -123t-30.5 -149.5q0 -104 51.5 -192.5t140 -140t192.5 -51.5q78 0 149 30.5t122.5 82t82 122.5t30.5 149q0 105 -51.5 193.5t-140 140
t-192.5 51.5zM512 768z" />
    <glyph glyph-name="uniE641" unicode="&#xe641;" 
d="M512 -42q-115 0 -213 57t-155 155t-57 213.5t57 213.5t155 155t213 57q86 0 165 -34t136 -91t90.5 -135.5t33.5 -165.5q0 -115 -57 -213t-155 -155t-213 -57zM512 768q-78 0 -149 -30.5t-122.5 -82t-82 -123t-30.5 -149.5q0 -104 51.5 -192.5t140 -140t192.5 -51.5
q78 0 149 30.5t122.5 82t82 122.5t30.5 149q0 105 -51.5 193.5t-140 140t-192.5 51.5zM512 768zM704 323q-7 -56 -60.5 -90t-126.5 -34q-105 0 -150 48q-3 4 -7 8t-6.5 6t-5 5t-4 5t-3.5 5t-4 7q-20 -26 -24 -60v-11q0 -4 1.5 -15t8.5 -17.5t19 -7.5q57 -3 124 30
q4 -4 -10 -13.5t-40 -19.5t-52 -15q-12 -2 -21.5 -1.5t-18 3.5t-15 7t-11.5 9q-8 7 -12 19.5t-3.5 26t3.5 29.5t7.5 29.5t9.5 26.5t8.5 20.5t5.5 11.5q1 2 3 7t10.5 19t17 27.5t23 32.5t29.5 36t35.5 34.5t40.5 30.5q-28 -10 -56.5 -27t-48.5 -34.5t-35.5 -34t-23.5 -26.5
l-8 -10q4 20 13 43t22.5 45t27.5 34q12 10 25 18t27.5 14.5t30.5 11t33 7t35 2.5q39 0 68 -10.5t63 -36.5q20 -15 32 -37t17.5 -52t5.5 -72h-258q-5 -40 20 -59q10 -8 21 -12t17 -3h5q1 0 6 -0.5t15 2t18 7.5t13.5 13t7.5 14l1 5zM571 411q7 28 -9 43q-11 11 -24 16.5
t-20 5.5h-7h-11q-6 0 -20.5 -6t-22.5 -18q-4 -6 -6.5 -12t-3 -11t-1 -9t0.5 -6v-2zM571 411zM704 507l2 7q2 5 4.5 18t2.5 24t-5 22.5t-17 16.5q-1 0 -3 0.5t-8.5 1.5t-14 1t-19.5 -2t-24 -6.5t-28 -13t-31 -20.5q-41 -31 -37 -25l27 27l28 22q59 36 111 25
q14 -3 20.5 -14.5t5.5 -25t-4 -27t-7 -22.5zM704 507z" />
    <glyph glyph-name="uniE642" unicode="&#xe642;" 
d="M512 -42q-115 0 -213 57t-155 155t-57 213.5t57 213.5t155 155t213 57q86 0 165 -34t136 -91t90.5 -135.5t33.5 -165.5q0 -115 -57 -213t-155 -155t-213 -57zM512 768q-78 0 -149 -30.5t-122.5 -82t-82 -123t-30.5 -149.5q0 -104 51.5 -192.5t140 -140t192.5 -51.5
q78 0 149 30.5t122.5 82t82 122.5t30.5 149q0 105 -51.5 193.5t-140 140t-192.5 51.5zM512 768zM704 507zM333 594q-13 0 -21.5 -8t-8.5 -19v-412h61v412q0 11 -9 19t-22 8zM333 594zM669 520q-26 0 -50 6.5t-42 17.5q-38 23 -91 23q-42 0 -92 -30v-256q22 13 44.5 21.5
t47.5 8.5q13 0 26 -1.5t25 -4.5t22 -7.5t18 -9.5q18 -11 42 -17t50 -6q40 0 92 31v256q-14 -9 -26 -15t-30.5 -11.5t-35.5 -5.5zM669 520z" />
    <glyph glyph-name="uniE643" unicode="&#xe643;" horiz-adv-x="1025" 
d="M512 764q94 0 180 -37t148 -99t99 -148t37 -180t-37 -180t-99 -148t-148 -99t-180 -37t-180 37t-148 99t-99 148t-37 180t37 180t99 148t148 99t180 37zM512 812q-139 0 -257 -68.5t-186.5 -186.5t-68.5 -257t68.5 -257t186.5 -186.5t257 -68.5t257 68.5t186.5 186.5
t68.5 257t-68.5 257t-186.5 186.5t-257 68.5zM738 119l-181 181l181 181q10 9 10 22.5t-9.5 23t-23 9.5t-22.5 -10l-181 -181l-181 181q-9 10 -22.5 10t-23 -9.5t-9.5 -23t10 -22.5l181 -181l-181 -181q-10 -9 -10 -22.5t9.5 -23t23 -9.5t22.5 10l181 181l181 -181
q9 -10 22.5 -10t22.5 10q6 6 8.5 14t0 16.5t-8.5 14.5z" />
    <glyph glyph-name="uniE644" unicode="&#xe644;" 
d="M509 884q-102 0 -195 -39.5t-160 -106.5t-107 -160t-40 -195t40 -195t107 -160t160 -107t195 -40t195 40t160 107t106.5 160t39.5 195t-39.5 195t-106.5 160t-160 106.5t-195 39.5zM509 -94q-97 0 -185.5 37.5t-152.5 101.5t-101.5 152.5t-37.5 185.5t37.5 185.5
t101.5 152t152.5 101.5t185.5 38q78 0 150.5 -24t131 -68t103 -103t68.5 -131.5t24 -150.5q0 -179 -117 -313q-113 -130 -282 -158q-39 -6 -78 -6zM776 536l-100 101q-17 17 -41.5 17t-41.5 -17l-101 -100q-5 -5 -8.5 -10.5t-5.5 -12t-3 -13t-0.5 -12.5t3 -12.5t6 -12
t7.5 -10.5l20 -20l31 31l-3 2q-12 12 -11.5 28.5t11.5 27.5l67 67q12 11 28 11t28 -12l66 -67q8 -7 10.5 -17.5t0 -20.5t-10.5 -17l-67 -67q-12 -11 -28 -11t-27 11l-3 3l-31 -30l19 -20q18 -17 42 -17t42 17l100 100q18 17 18 41.5t-17 41.5zM530 292l-19 20l-31 -31l3 -3
q3 -3 5.5 -7t3.5 -8t1.5 -8t0 -8.5t-2 -8.5t-3.5 -8t-6 -7l-67 -67q-7 -7 -17.5 -9.5t-20.5 0t-17 10.5l-67 67q-11 11 -11 27.5t11 27.5l67 67q8 7 18 10t20 0t18 -10l3 -3l30 30l-19 20q-17 17 -41.5 17t-41.5 -17l-101 -100q-17 -17 -17 -41.5t17 -41.5l100 -101
q17 -17 41.5 -17t41.5 17l101 100q17 17 17 41.5t-17 41.5zM449 281q-2 -2 -4.5 -3t-5.5 -2t-5.5 -1t-5.5 1t-5.5 2t-4.5 4q-6 6 -6 15t6 15l154 153q4 3 8 4.5t8 1.5t8 -1.5t7 -4.5q6 -6 6 -15t-6 -16zM449 281z" />
    <glyph glyph-name="uniE645" unicode="&#xe645;" 
d="M512 886q-102 0 -195 -40t-160 -107t-107 -160t-40 -195t40 -195t107 -160t160 -107t195 -40t195 40t160 107t107 160t40 195q0 186 -121 326q-115 135 -288 167q-47 8 -93 9zM512 -93q-97 0 -185.5 37.5t-152.5 101.5t-101.5 152.5t-37.5 185.5t37.5 185.5t101.5 152
t152.5 101.5t185.5 38q78 0 150.5 -24t131.5 -68t103 -103t68 -131.5t24 -150.5q0 -97 -37.5 -185.5t-101.5 -152.5t-152.5 -101.5t-185.5 -37.5zM671 181l-316 -3l-2 221l316 3zM431 511q-1 32 22 55.5t56 24t56 -22.5t24 -56v-63l-158 -2v64zM637 450l-1 63q0 34 -17.5 63
t-46.5 45.5t-64 16.5q-52 -1 -88.5 -38t-36.5 -90l1 -63l-48 -1q-6 0 -12 -2.5t-10 -6.5t-6.5 -10t-2.5 -13l3 -253q0 -13 9.5 -22t22.5 -9l348 4q13 0 22 9.5t9 22.5l-3 253q0 13 -9.5 22t-22.5 9h-47zM637 450z" />
    <glyph glyph-name="uniE646" unicode="&#xe646;" 
d="M512 886q-102 0 -195 -40t-160 -107t-107 -160t-40 -195t40 -195t107 -160t160 -107t195 -40t195 40t160 107t107 160t40 195q0 186 -121 326q-115 135 -288 167q-47 8 -93 9zM512 -93q-97 0 -185.5 37.5t-152.5 101.5t-101.5 152.5t-37.5 185.5t37.5 185.5t101.5 152
t152.5 101.5t185.5 38q78 0 150.5 -24t131.5 -68t103 -103t68 -131.5t24 -150.5q0 -97 -37.5 -185.5t-101.5 -152.5t-152.5 -101.5t-185.5 -37.5zM693 439h-37v56q0 25 -8 48t-22.5 40.5t-33.5 31t-39.5 20t-41.5 6.5q-18 0 -35.5 -4.5t-33 -13t-29.5 -21t-24 -28.5
t-15.5 -36t-5.5 -42v-57h-37q-22 0 -38 -16t-16 -39v-202q0 -23 16 -39t38 -16h362q22 0 38 16t16 39v202q0 7 -2 14.5t-5.5 13.5t-8.5 11t-11 8.5t-13 5.5t-14 2zM404 496q0 48 32.5 78t74.5 30q41 0 75 -32t34 -77v-56h-216v57zM711 182q0 -8 -5.5 -13t-12.5 -5h-362
q-3 0 -6.5 1.5t-6 3.5t-4 5.5t-1.5 7.5v202q0 4 1.5 7.5t4 5.5t6 3.5t6.5 1.5h362q7 0 12.5 -5t5.5 -13v-202zM558 343q6 6 0 12q-3 3 -7 3t-7 -3l-32 -29l-32 29q-7 6 -13.5 0t-0.5 -12l36 -33v-5h-29q-4 0 -6.5 -2.5t-2.5 -6.5q0 -9 9 -9h29v-17h-29q-4 0 -6.5 -2.5
t-2.5 -6.5q0 -9 9 -9h29v-26q2 -8 10 -9q3 0 5 1.5t3.5 3.5t1.5 4v26h29q9 0 9 9q0 4 -2.5 6.5t-6.5 2.5h-29v17h29q9 0 9 9q0 4 -2.5 6.5t-6.5 2.5h-29v5zM558 343z" />
    <glyph glyph-name="uniE647" unicode="&#xe647;" 
d="M566 -14q-22 -22 -54 -22t-54 22q-23 22 -23 54.5t23 54.5q7 7 16 12.5t18.5 8t19.5 2.5q32 0 54 -23q23 -22 23 -54.5t-23 -54.5zM457 497q22 24 55 24q34 0 55 -24q22 -23 22 -58q0 -7 -8 -52.5t-18 -110.5t-14 -112h-73q-2 25 -6 56t-8.5 59t-9 55.5t-8.5 48.5
t-6.5 36.5t-2.5 19.5q0 34 22 58zM1003 -5l-402 701q-10 18 -22.5 31.5t-25.5 21t-27 10.5t-28 0t-27 -10.5t-25.5 -21t-22.5 -31.5l-402 -701q-37 -64 -10.5 -109.5t99.5 -45.5h804q73 0 99.5 45.5t-10.5 109.5z" />
    <glyph glyph-name="uniE648" unicode="&#xe648;" 
d="M733 492q-14 10 -31 7.5t-27 -16.5l-223 -304l-105 129q-10 13 -27 15t-30.5 -8.5t-15 -27.5t8.5 -30l138 -171q6 -7 14.5 -11t17.5 -4h1q20 0 32 16l255 347q7 9 8 20t-3 21t-13 17zM512 809q-104 0 -198.5 -40.5t-163 -108.5t-109 -163t-40.5 -198.5t40.5 -198
t109 -163t163 -109t198.5 -40.5t198.5 40.5t162.5 109t109 163t41 198t-41 198.5t-109 163t-162.5 108.5t-198.5 40.5zM512 -113q-112 0 -206.5 55.5t-150 150t-55.5 206t55.5 206.5t150 150t206.5 55q48 0 94 -10.5t86.5 -31t76.5 -48.5t64 -64t48.5 -76.5t31 -86.5
t10.5 -94q0 -67 -20.5 -130t-59 -113.5t-89 -88.5t-113 -59t-129.5 -21z" />
    <glyph glyph-name="uniE649" unicode="&#xe649;" 
d="M510 711q-111 0 -205.5 -54.5t-149 -149t-54.5 -205.5q0 -105 50 -196q1 -5 3 -9t6 -7q54 -90 147 -143.5t203 -53.5q111 0 205 54.5t149 149t55 205.5t-55 205.5t-149 149t-205 54.5zM509 -33q-90 0 -166 44t-121 119l-2 4l-2 4q-1 2 -2 3.5t-3 3.5q-39 73 -39 158
q0 91 45 168t122 122t168 45q34 0 67.5 -7t63 -19.5t57 -31t50 -41t40.5 -49.5t31 -57t19.5 -63t6.5 -67q0 -91 -44.5 -168.5t-122 -122.5t-168.5 -45zM669 462.5q-11 10.5 -26.5 10.5t-26.5 -10l-106 -107l-107 107q-11 11 -26.5 11t-26.5 -11q-4 -4 -7 -9.5t-3.5 -11
t0 -11.5t3.5 -11t7 -10l107 -106l-106 -107q-11 -11 -11 -26t11 -26t26 -11t26 11l107 107l106 -106q7 -7 16.5 -10t19 -0.5t16.5 9.5q11 11 11 26.5t-11 26.5l-106 106l106 107q11 11 11.5 26t-10.5 25.5z" />
    <glyph glyph-name="uniE64A" unicode="&#xe64a;" 
d="M574 272zM877 544q-33 79 -94 139.5t-140 94.5q-81 34 -170.5 34t-170.5 -34q-79 -34 -139.5 -94.5t-94.5 -139.5q-34 -81 -34 -170.5t34 -171.5q34 -78 94.5 -139t139.5 -94q81 -35 170.5 -35t170.5 35q79 33 140 94t94 139q34 82 34 171t-34 171zM473 -16
q-106 0 -196 52t-142 142t-52 195.5t52 195t142 142t195.5 52.5t195.5 -52.5t142 -142t52 -195.5q0 -153 -104 -265q-102 -109 -250 -123q-18 -1 -35 -1zM199 183q-25 25 -42.5 55.5t-26.5 64.5t-9 70q0 112 78 191l35 -35q-33 -26 -50.5 -69t-17.5 -87.5t16 -88.5t45 -73z
M282 183zM809 51l123 -141q8 -9 10 -20.5t-2 -23t-13 -19.5q-7 -6 -15.5 -9t-17 -2.5t-16.5 4.5t-14 11l-123 141l-34 -31l124 -142q24 -28 62 -30.5t66 22t30.5 62t-21.5 66.5l-124 142z" />
    <glyph glyph-name="uniE64B" unicode="&#xe64b;" 
d="M512 886q-82 0 -158.5 -25.5t-138 -72t-108 -108t-72 -138t-25.5 -158.5q0 -102 40 -195t107 -160t160 -107t195 -40t195 40t160 107t107 160t40 195t-40 195t-107 160t-160 107t-195 40zM512 -93q-97 0 -185.5 37.5t-152.5 101.5t-101.5 152.5t-37.5 185.5t37.5 185.5
t101.5 152t152.5 101.5t185.5 38q78 0 150.5 -24t131.5 -68t103 -103t68 -131.5t24 -150.5q0 -179 -117 -313q-113 -130 -281 -158q-40 -6 -79 -6zM433 204h-62q-25 0 -45.5 12t-32.5 33t-12 45v235q0 38 26.5 64.5t63.5 26.5h296q25 0 46 -12t33 -33t12 -46v-235
q0 -24 -12 -45t-33 -33t-46 -12h-77q-7 0 -11 -5l-81 -84q-11 -11 0 -21.5t22 0.5l81 84l-11 -4h77q50 0 85.5 35t35.5 85v235q0 50 -35.5 85.5t-85.5 35.5h-296q-50 0 -85.5 -35.5t-35.5 -85.5v-235q0 -50 35.5 -85t85.5 -35h62q6 0 10.5 4t4.5 10.5t-4.5 11t-10.5 4.5v0z
M433 204zM382 453h232q7 0 11.5 4.5t4.5 10.5q0 3 -1.5 6t-3.5 5t-4.5 3t-6.5 1h-232q-4 0 -7.5 -2t-5.5 -5.5t-2 -7.5q0 -6 4 -10.5t11 -4.5v0zM382 453zM382 358h275q2 0 4 0.5t3.5 1.5t3 2.5t2.5 3t1.5 3.5t0.5 4q0 16 -15 16h-275q-4 0 -7.5 -2.5t-5.5 -6t-2 -7.5
q0 -6 4 -10.5t11 -4.5v0zM382 358z" />
    <glyph glyph-name="uniE64C" unicode="&#xe64c;" 
d="M512 884q-68 0 -133 -18t-120 -50.5t-101.5 -79t-78.5 -101.5t-50.5 -120t-18.5 -133q0 -82 25.5 -158.5t72 -138t108 -108t138 -71.5t158.5 -25q102 0 195 39.5t160 106.5t107 160t40 195q0 186 -121 326q-115 135 -288 167q-47 9 -93 9zM781 307q0 -50 -35.5 -85.5
t-85.5 -35.5h-71l-77 -80q-4 -4 -10.5 -4.5t-10.5 4.5q-11 10 -1 21l82 85q4 5 11 5h77q19 0 35.5 7t28.5 19t19.5 29t7.5 35v235q0 15 -4.5 28.5t-13 25t-19.5 19.5t-25 12.5t-29 4.5h-296q-12 0 -24 -3t-22 -9t-18.5 -14t-14 -18t-9 -22t-3.5 -24v-235q0 -12 3.5 -24
t9 -22t14 -18t18.5 -14t21.5 -9t24.5 -3h62q4 0 7.5 -2t5.5 -5.5t2 -8.5q0 -3 -1.5 -5.5t-3.5 -4.5t-4.5 -3.5t-5.5 -1.5h-62q-33 0 -61 16.5t-44 44t-16 60.5v235q0 50 35.5 85.5t85.5 35.5h296q50 0 85.5 -35.5t35.5 -85.5v-235zM374 401h276q6 0 10.5 -4.5t4.5 -10.5
q0 -15 -15 -15h-276q-6 0 -10.5 4.5t-4.5 10.5t4.5 10.5t10.5 4.5zM359 481q0 4 2 7.5t5.5 5.5t7.5 2h233q3 0 6 -1t5 -3.5t3 -5t1 -5.5t-1 -6t-3 -5t-5 -3t-6 -1h-233q-4 0 -7.5 2t-5.5 5.5t-2 7.5z" />
    <glyph glyph-name="uniE64D" unicode="&#xe64d;" horiz-adv-x="1025" 
d="M512 896q-104 0 -199 -40.5t-163.5 -109t-109 -163.5t-40.5 -199t40.5 -199t109 -163.5t163.5 -109t199 -40.5t199 40.5t163.5 109t109 163.5t40.5 199t-40.5 199t-109 163.5t-163.5 109t-199 40.5zM512 -123q-187 0 -329 121q-135 116 -169 289q-9 48 -9 97
q0 103 40 197t108 162t162 108t197 40q69 0 134.5 -18t121.5 -51t102.5 -79.5t79.5 -102.5t51 -121.5t18 -134.5q0 -187 -121 -329q-116 -135 -289 -169q-48 -9 -97 -9zM512 808q-115 0 -212.5 -57t-154.5 -154.5t-57 -212.5t57 -212.5t154.5 -154.5t212.5 -57t212.5 57
t154.5 154.5t57 212.5t-57 212.5t-154.5 154.5t-212.5 57zM512 -16q-108 0 -200.5 53.5t-146 146t-53.5 200.5t53.5 200.5t146 146t200.5 53.5q81 0 155 -32t127.5 -85.5t85.5 -127.5t32 -155t-32 -155t-85.5 -127.5t-127.5 -85.5t-155 -32zM225 186l52 52q-3 1 -5.5 1.5
t-5.5 1t-6 0.5l3 13q11 -1 20 -3l-2 -9l53 53l22 -22l-9 -10l-14 14l-90 -90l14 -14l-10 -9zM261 172l38 39l-12 13l9 9l13 -13l39 39l58 -58l-9 -8l-5 5l-31 -30l26 -26l-9 -9l-26 26l-30 -31l5 -5l-8 -9zM291 159l31 30l-14 14l-30 -31zM313 137l31 30l-14 14l-31 -30z
M347 242l-30 -30l14 -14l30 30zM353 176l30 30l-14 14l-30 -30zM403 241q-7 33 -25 61l-17 -17l-8 8l17 17l-24 24l9 9l24 -24l13 14l9 -9l-14 -13l21 -21v8q7 0 13.5 0.5t13.5 0.5v-12h-8h-8h-8l61 -61l-9 -9l-63 63q14 -26 18 -46q-7 4 -15 7zM452 267q11 36 11 69
q-11 -13 -20 -24q-4 -5 -6 -10l-13 4q2 8 1 14q-1 17 -6 36l-23 -23l-8 9l36 36l-8 2h-6l-8 2l3 12h5q2 0 4 -0.5t4.5 -1t5 -0.5t5.5 -1l-2 -10l36 36l9 -8l-42 -42q1 -6 2 -11.5t2 -10.5t1.5 -10.5t1.5 -10.5q4 5 8 9.5t8.5 9t8.5 9.5q-2 15 -6 30l13 4q15 -56 -3 -119h-14
zM479 247q23 58 11 123l13 3q3 -13 4 -25t1 -24q24 2 47 4v-15q-7 0 -15 -0.5t-16 -0.5t-17 -1q-2 -33 -14 -65q-5 1 -14 1zM558 330q29 58 10 95l-51 -51l-9 9l52 53q-7 9 -23 25l-31 -31l2 -6q1 -3 1.5 -6.5t0.5 -6.5l2 -6q0 -3 1 -6h-4q-2 0 -4.5 -0.5t-5.5 -1.5
q-1 16 -6 31.5t-13 29.5l12 7q6 -11 10 -22l27 27l-23 23l10 11q12 -13 22 -24l45 44l9 -9l-45 -44q14 -15 23 -25l52 52l9 -9l-51 -51q41 -19 94 12q1 -9 2 -17q-54 -26 -94 -8q18 -36 -8 -97q-2 0 -4.5 0.5t-5.5 0.5t-6 1zM583 559l45 45l75 -74l-9 -9l-66 66l-28 -28
l66 -67l-8 -8zM620 559l8 8l26 -25q19 -19 29 -34v7q23 0 40 -2l-1 -13q-10 1 -19 2t-17 1q13 -21 8 -53q-7 0 -15 1q5 24 -1 40t-30 39zM668 565q-10 35 -27 64l11 6q7 -13 12 -25l44 44l8 -8l-11 -12q38 -42 43 -75q11 -1 23 2t25 10q1 -7 3 -17q-27 -10 -50 -8
q1 -21 -8 -52q-7 2 -14 2q10 30 9 53q-28 6 -60 34q3 -11 7 -21q-9 3 -15 3zM734 562q-6 28 -38 63l-25 -25q36 -31 63 -38z" />
    </font>
</defs>
</svg>
